<svg width="30" height="33" viewBox="0 0 30 33" fill="none" xmlns="http://www.w3.org/2000/svg">
<line x1="1.80867" y1="-1.80867" x2="16.1618" y2="-1.80867" transform="matrix(-0.707107 -0.707107 -0.707107 0.707107 12.707 18.5618)" stroke="#040B52" stroke-width="3.61733" stroke-linecap="round"/>
<path d="M12.5688 16.7393L6.73907 22.569" stroke="#040B52" stroke-width="3.61733" stroke-linecap="round"/>
<circle r="2.03789" transform="matrix(1 0 0 -1 12.69 16.3857)" fill="#0B1DD5"/>
<line x1="1.80866" y1="-1.80866" x2="16.1618" y2="-1.80866" transform="matrix(-0.707107 0.707107 0.707107 0.707107 18.3108 20.2229)" stroke="#040B52" stroke-width="3.61733" stroke-linecap="round"/>
<line x1="1.80866" y1="-1.80866" x2="11.1597" y2="-1.80866" transform="matrix(0.707107 0.707107 0.707107 -0.707107 16.3044 17.3911)" stroke="#040B52" stroke-width="3.61733" stroke-linecap="round"/>
<circle r="2.04222" transform="matrix(0 -1 -1 0 16.1726 20.0855)" fill="#0B1DD5"/>
<line x1="1.80867" y1="-1.80867" x2="16.1618" y2="-1.80867" transform="matrix(0.707171 -0.707043 -0.707042 -0.707171 14.2737 12.7078)" stroke="#040B52" stroke-width="3.61733" stroke-linecap="round"/>
<line x1="1.80867" y1="-1.80867" x2="11.1597" y2="-1.80867" transform="matrix(-0.707043 -0.707171 -0.707171 0.707042 16.1257 15.4751)" stroke="#040B52" stroke-width="3.61733" stroke-linecap="round"/>
<circle r="2.03789" transform="matrix(-9.08269e-05 1 1 9.08269e-05 16.3858 12.9077)" fill="#0B1DD5"/>
</svg>
