<svg width="263" height="237" viewBox="0 0 263 237" fill="none" xmlns="http://www.w3.org/2000/svg">
<g clip-path="url(#clip0)">
<path d="M65.1623 60.1039C60.6401 46.5858 46.6748 39.0726 37.4877 42.146C28.3006 45.2194 21.6674 59.6234 26.1896 73.1416C30.3755 85.6543 43.0595 92.8779 51.785 91.5888C51.7221 91.6983 51.6807 91.8187 51.663 91.9437L51.3962 94.169C51.3759 94.3387 51.3992 94.5107 51.4641 94.6687C51.5289 94.8268 51.6331 94.9657 51.7667 95.0722C51.9003 95.1787 52.0589 95.2492 52.2275 95.2772C52.396 95.3051 52.5689 95.2895 52.7297 95.2318L57.2244 93.6202C57.3853 93.5625 57.5287 93.4647 57.6411 93.336C57.7535 93.2074 57.8311 93.0521 57.8666 92.8849C57.9021 92.7178 57.8943 92.5444 57.844 92.3811C57.7936 92.2179 57.7023 92.0702 57.5788 91.9521L55.9586 90.4034C55.901 90.3507 55.8374 90.305 55.7691 90.2672C63.5515 86.0732 69.3574 72.6439 65.1623 60.1039Z" fill="#F2F2F2"/>
<path d="M48.7909 50.1584C52.5465 52.0966 55.4145 55.4027 56.8031 59.3943C58.1917 63.3859 57.9948 67.7582 56.253 71.6088C55.8641 72.4942 57.2943 72.9598 57.6807 72.0802C59.5094 67.9139 59.6955 63.2102 58.2014 58.9124C56.7074 54.6146 53.6438 51.0406 49.625 48.907C48.7768 48.4575 47.9364 49.7056 48.7909 50.1584Z" fill="white"/>
<path d="M248.252 40.3992C243.73 26.881 229.765 19.3678 220.578 22.4412C211.391 25.5146 204.757 39.9187 209.28 53.4368C213.466 65.9496 226.15 73.1731 234.875 71.8841C234.812 71.9935 234.771 72.114 234.753 72.2389L234.486 74.4643C234.466 74.6339 234.489 74.8059 234.554 74.964C234.619 75.122 234.723 75.2609 234.857 75.3674C234.99 75.4739 235.149 75.5444 235.318 75.5724C235.486 75.6003 235.659 75.5847 235.82 75.5271L240.314 73.9154C240.475 73.8578 240.619 73.76 240.731 73.6313C240.844 73.5026 240.921 73.3473 240.957 73.1802C240.992 73.0131 240.984 72.8396 240.934 72.6764C240.884 72.5131 240.792 72.3654 240.669 72.2474L239.049 70.6986C238.991 70.6459 238.927 70.6002 238.859 70.5624C246.642 66.3684 252.447 52.9391 248.252 40.3992Z" fill="#F2F2F2"/>
<path d="M231.881 30.4536C235.637 32.3919 238.505 35.698 239.893 39.6895C241.282 43.6811 241.085 48.0535 239.343 51.9041C238.954 52.7894 240.384 53.255 240.771 52.3755C242.6 48.2091 242.786 43.5054 241.292 39.2076C239.797 34.9099 236.734 31.3358 232.715 29.2023C231.867 28.7528 231.026 30.0008 231.881 30.4536Z" fill="white"/>
<path d="M141.929 18.6418C137.407 5.12368 123.441 -2.3895 114.254 0.683899C105.067 3.7573 98.4338 18.1613 102.956 31.6795C107.142 44.1922 119.826 51.4158 128.552 50.1267C128.489 50.2362 128.447 50.3566 128.43 50.4816L128.163 52.7069C128.142 52.8766 128.166 53.0486 128.231 53.2066C128.295 53.3647 128.4 53.5036 128.533 53.6101C128.667 53.7165 128.825 53.7871 128.994 53.8151C129.162 53.843 129.335 53.8274 129.496 53.7697L133.991 52.1581C134.152 52.1004 134.295 52.0026 134.408 51.8739C134.52 51.7452 134.598 51.59 134.633 51.4228C134.669 51.2557 134.661 51.0823 134.61 50.919C134.56 50.7557 134.469 50.6081 134.345 50.49L132.725 48.9413C132.668 48.8886 132.604 48.8429 132.536 48.8051C140.318 44.611 146.124 31.1818 141.929 18.6418Z" fill="#F2F2F2"/>
<path d="M125.557 8.6963C129.313 10.6345 132.181 13.9406 133.57 17.9322C134.958 21.9238 134.761 26.2961 133.019 30.1467C132.631 31.0321 134.061 31.4977 134.447 30.6181C136.276 26.4518 136.462 21.7481 134.968 17.4503C133.474 13.1525 130.41 9.57849 126.391 7.44492C125.543 6.99543 124.703 8.24347 125.557 8.6963Z" fill="white"/>
<path d="M119.248 83.6887C119.843 83.6887 120.325 83.2063 120.325 82.6113C120.325 82.0163 119.843 81.534 119.248 81.534C118.653 81.534 118.17 82.0163 118.17 82.6113C118.17 83.2063 118.653 83.6887 119.248 83.6887Z" fill="#CCCCCC"/>
<path d="M116.951 126.907C118.127 126.907 119.08 125.955 119.08 124.779C119.08 123.604 118.127 122.651 116.951 122.651C115.776 122.651 114.823 123.604 114.823 124.779C114.823 125.955 115.776 126.907 116.951 126.907Z" fill="#CCCCCC"/>
<path d="M81.3203 118.712C81.9995 118.712 82.5501 118.162 82.5501 117.482C82.5501 116.803 81.9995 116.252 81.3203 116.252C80.6411 116.252 80.0905 116.803 80.0905 117.482C80.0905 118.162 80.6411 118.712 81.3203 118.712Z" fill="#CCCCCC"/>
<path d="M100.004 98.5748C100.74 98.5748 101.336 97.9785 101.336 97.243C101.336 96.5074 100.74 95.9111 100.004 95.9111C99.2684 95.9111 98.6721 96.5074 98.6721 97.243C98.6721 97.9785 99.2684 98.5748 100.004 98.5748Z" fill="#CCCCCC"/>
<path d="M165.541 176.551C166.136 176.551 166.618 176.069 166.618 175.474C166.618 174.879 166.136 174.396 165.541 174.396C164.946 174.396 164.463 174.879 164.463 175.474C164.463 176.069 164.946 176.551 165.541 176.551Z" fill="#CCCCCC"/>
<path d="M130.257 154.398C131.432 154.398 132.385 153.445 132.385 152.269C132.385 151.094 131.432 150.141 130.257 150.141C129.082 150.141 128.129 151.094 128.129 152.269C128.129 153.445 129.082 154.398 130.257 154.398Z" fill="#CCCCCC"/>
<path d="M154.493 126.38C155.172 126.38 155.723 125.83 155.723 125.151C155.723 124.471 155.172 123.921 154.493 123.921C153.814 123.921 153.263 124.471 153.263 125.151C153.263 125.83 153.814 126.38 154.493 126.38Z" fill="#CCCCCC"/>
<path d="M162.581 152.813C163.316 152.813 163.913 152.217 163.913 151.481C163.913 150.746 163.316 150.149 162.581 150.149C161.845 150.149 161.249 150.746 161.249 151.481C161.249 152.217 161.845 152.813 162.581 152.813Z" fill="#CCCCCC"/>
<path d="M234.317 221.408C235.492 220.424 233.904 216.592 230.77 212.849C227.636 209.106 224.143 206.869 222.968 207.853C221.792 208.836 223.38 212.669 226.515 216.412C229.649 220.155 233.142 222.392 234.317 221.408Z" fill="#2F2E41"/>
<path d="M209.838 229.24C219.602 229.24 227.518 221.325 227.518 211.561C227.518 201.796 219.602 193.881 209.838 193.881C200.073 193.881 192.158 201.796 192.158 211.561C192.158 221.325 200.073 229.24 209.838 229.24Z" fill="#2F2E41"/>
<path d="M217.321 225.436H211.95V235.059H217.321V225.436Z" fill="#2F2E41"/>
<path d="M206.579 225.436H201.208V235.059H206.579V225.436Z" fill="#2F2E41"/>
<path d="M212.845 236.849C215.317 236.849 217.321 236.098 217.321 235.171C217.321 234.244 215.317 233.493 212.845 233.493C210.373 233.493 208.369 234.244 208.369 235.171C208.369 236.098 210.373 236.849 212.845 236.849Z" fill="#2F2E41"/>
<path d="M202.103 236.626C204.575 236.626 206.579 235.874 206.579 234.947C206.579 234.02 204.575 233.269 202.103 233.269C199.631 233.269 197.627 234.02 197.627 234.947C197.627 235.874 199.631 236.626 202.103 236.626Z" fill="#2F2E41"/>
<path d="M204.286 189.337C205.865 182.979 212.834 179.238 219.851 180.98C226.868 182.723 231.277 189.289 229.699 195.647C228.12 202.004 222.883 202.025 215.865 200.282C208.848 198.54 202.708 195.694 204.286 189.337Z" fill="#E6E6E6"/>
<path d="M197.912 207.145C198.568 205.76 195.525 202.942 191.114 200.85C186.702 198.758 182.594 198.184 181.937 199.569C181.28 200.954 184.324 203.772 188.735 205.864C193.146 207.957 197.255 208.53 197.912 207.145Z" fill="#2F2E41"/>
<path d="M207.195 213.725C210.45 213.725 213.089 211.085 213.089 207.83C213.089 204.575 210.45 201.936 207.195 201.936C203.939 201.936 201.3 204.575 201.3 207.83C201.3 211.085 203.939 213.725 207.195 213.725Z" fill="white"/>
<path d="M204.772 207.682C205.857 207.682 206.737 206.802 206.737 205.717C206.737 204.632 205.857 203.752 204.772 203.752C203.687 203.752 202.807 204.632 202.807 205.717C202.807 206.802 203.687 207.682 204.772 207.682Z" fill="#3F3D56"/>
<path d="M210.892 220.111C210.985 220.619 210.976 221.139 210.867 221.644C210.758 222.148 210.551 222.626 210.258 223.051C209.964 223.475 209.59 223.837 209.156 224.117C208.722 224.397 208.238 224.588 207.73 224.681C207.222 224.773 206.701 224.765 206.197 224.656C205.692 224.547 205.214 224.34 204.79 224.046C204.366 223.752 204.003 223.378 203.724 222.944C203.444 222.511 203.253 222.026 203.16 221.518V221.518L203.159 221.511C202.772 219.375 204.423 218.62 206.559 218.233C208.694 217.846 210.506 217.975 210.892 220.111Z" fill="white"/>
<path d="M64.4842 199.201C66.2273 194.64 66.4798 190.5 65.0481 189.952C63.6165 189.405 61.0429 192.659 59.2998 197.219C57.5567 201.779 57.3043 205.92 58.7359 206.467C60.1675 207.014 62.7412 203.761 64.4842 199.201Z" fill="#2F2E41"/>
<path d="M45.5506 229.24C55.3149 229.24 63.2304 221.325 63.2304 211.561C63.2304 201.796 55.3149 193.881 45.5506 193.881C35.7863 193.881 27.8707 201.796 27.8707 211.561C27.8707 221.325 35.7863 229.24 45.5506 229.24Z" fill="#2F2E41"/>
<path d="M42.865 225.436H37.4939V235.059H42.865V225.436Z" fill="#2F2E41"/>
<path d="M53.6072 225.436H48.2361V235.059H53.6072V225.436Z" fill="#2F2E41"/>
<path d="M41.9698 236.849C44.4418 236.849 46.4457 236.098 46.4457 235.171C46.4457 234.244 44.4418 233.493 41.9698 233.493C39.4978 233.493 37.4939 234.244 37.4939 235.171C37.4939 236.098 39.4978 236.849 41.9698 236.849Z" fill="#2F2E41"/>
<path d="M52.712 236.626C55.184 236.626 57.1879 235.874 57.1879 234.947C57.1879 234.02 55.184 233.269 52.712 233.269C50.24 233.269 48.2361 234.02 48.2361 234.947C48.2361 235.874 50.24 236.626 52.712 236.626Z" fill="#2F2E41"/>
<path d="M45.9982 213.127C49.3353 213.127 52.0406 210.422 52.0406 207.085C52.0406 203.748 49.3353 201.042 45.9982 201.042C42.661 201.042 39.9557 203.748 39.9557 207.085C39.9557 210.422 42.661 213.127 45.9982 213.127Z" fill="white"/>
<path d="M45.9981 209.099C47.1104 209.099 48.0122 208.197 48.0122 207.085C48.0122 205.972 47.1104 205.071 45.9981 205.071C44.8857 205.071 43.9839 205.972 43.9839 207.085C43.9839 208.197 44.8857 209.099 45.9981 209.099Z" fill="#3F3D56"/>
<path d="M28.4004 195.119C26.9729 188.726 31.5362 182.265 38.593 180.69C45.6497 179.114 52.5276 183.019 53.9552 189.413C55.3827 195.806 50.706 198.164 43.6492 199.74C36.5925 201.315 29.828 201.512 28.4004 195.119Z" fill="#E6E6E6"/>
<path d="M33.6241 207.145C34.2809 205.76 31.2374 202.942 26.8262 200.85C22.4151 198.758 18.3067 198.184 17.6499 199.569C16.9931 200.954 20.0366 203.772 24.4478 205.864C28.859 207.957 32.9674 208.53 33.6241 207.145Z" fill="#2F2E41"/>
<path d="M36.8662 217.939C36.8662 219.669 41.3217 223.086 46.2656 223.086C51.2096 223.086 55.8451 218.214 55.8451 216.484C55.8451 214.754 51.2095 216.82 46.2656 216.82C41.3217 216.82 36.8662 216.208 36.8662 217.939Z" fill="white"/>
<path d="M130.001 212.409C139.766 212.409 147.681 204.494 147.681 194.729C147.681 184.965 139.766 177.05 130.001 177.05C120.237 177.05 112.322 184.965 112.322 194.729C112.322 204.494 120.237 212.409 130.001 212.409Z" fill="#2F2E41"/>
<path d="M127.316 208.605H121.945V218.228H127.316V208.605Z" fill="#2F2E41"/>
<path d="M138.058 208.605H132.687V218.228H138.058V208.605Z" fill="#2F2E41"/>
<path d="M126.421 220.018C128.893 220.018 130.897 219.267 130.897 218.34C130.897 217.413 128.893 216.661 126.421 216.661C123.949 216.661 121.945 217.413 121.945 218.34C121.945 219.267 123.949 220.018 126.421 220.018Z" fill="#2F2E41"/>
<path d="M137.163 219.795C139.635 219.795 141.639 219.043 141.639 218.116C141.639 217.189 139.635 216.438 137.163 216.438C134.691 216.438 132.687 217.189 132.687 218.116C132.687 219.043 134.691 219.795 137.163 219.795Z" fill="#2F2E41"/>
<path d="M112.851 178.288C111.424 171.894 115.987 165.434 123.044 163.859C130.101 162.283 136.979 166.188 138.406 172.582C139.834 178.975 135.157 181.333 128.1 182.909C121.043 184.484 114.279 184.681 112.851 178.288Z" fill="#7A86FF"/>
<path d="M149.053 187.004C152.882 183.172 155.011 179.091 153.808 177.889C152.605 176.687 148.526 178.819 144.697 182.651C140.868 186.483 138.74 190.563 139.942 191.765C141.145 192.967 145.225 190.836 149.053 187.004Z" fill="#2F2E41"/>
<path d="M115.751 192.997C116.954 191.795 114.825 187.714 110.996 183.882C107.167 180.051 103.088 177.919 101.885 179.121C100.682 180.323 102.811 184.403 106.64 188.235C110.469 192.067 114.548 194.199 115.751 192.997Z" fill="#2F2E41"/>
<path d="M237.486 82.5224C236.899 64.3941 224.483 50.0849 209.754 50.5617C176.973 51.533 176.173 111.647 207.822 115.965L207.152 121.292L216.926 120.975L215.913 115.703C228.645 112.889 238.018 98.9578 237.486 82.5224Z" fill="#FF6584"/>
<path d="M193.453 92.5733L189.76 92.6929C188.312 85.811 188.083 78.7286 189.083 71.7675L192.775 71.648C191.411 78.9347 191.637 85.9098 193.453 92.5733Z" fill="white"/>
<path d="M217.405 115.62L206.327 115.979L206.407 118.441L217.485 118.082L217.405 115.62Z" fill="#3F3D56"/>
<path d="M185.228 209.886L184.113 209.364L211.54 116.352L212.656 116.875L185.228 209.886Z" fill="#3F3D56"/>
<path d="M260.187 97.8519C266.885 80.9963 261.213 62.9203 247.517 57.4781C217.074 45.2836 192.344 100.081 219.639 116.674L216.898 121.29L225.986 124.902L227.162 119.663C239.959 122.165 254.114 113.134 260.187 97.8519Z" fill="#7A86FF"/>
<path d="M215.802 89.4906L212.368 88.1262C213.788 81.2386 216.405 74.6533 220.1 68.6698L223.533 70.0342C219.374 76.1709 216.797 82.6563 215.802 89.4906Z" fill="white"/>
<path d="M218.263 116.09L217.353 118.379L227.654 122.472L228.563 120.183L218.263 116.09Z" fill="#3F3D56"/>
<path d="M185.011 207.437L183.941 206.828L222.233 119.442L223.303 120.051L185.011 207.437Z" fill="#3F3D56"/>
<path d="M52.0502 83.6936C44.8034 67.0665 27.977 58.3608 14.4675 64.2488C-15.6322 77.2695 5.84632 133.421 36.8497 125.734L38.1962 130.931L47.1615 127.023L44.2711 122.499C55.0606 115.178 58.6203 98.7681 52.0502 83.6936Z" fill="#7A86FF"/>
<path d="M14.8514 109.311L11.4645 110.787C7.57541 104.927 4.74419 98.4315 3.09949 91.5941L6.48642 90.118C7.91285 97.3927 10.7012 103.79 14.8514 109.311Z" fill="white"/>
<path d="M45.627 121.87L35.4662 126.299L36.4503 128.557L46.6111 124.128L45.627 121.87Z" fill="#3F3D56"/>
<path d="M69.1356 210.124C68.9771 210.163 68.8095 210.138 68.6696 210.053C68.5298 209.969 68.4291 209.833 68.3898 209.674L41.6211 124.855L42.8164 124.559L69.585 209.378C69.6045 209.456 69.6083 209.538 69.5963 209.618C69.5842 209.698 69.5565 209.775 69.5148 209.844C69.4731 209.913 69.4181 209.973 69.353 210.021C69.288 210.069 69.2141 210.104 69.1356 210.124Z" fill="#3F3D56"/>
<path d="M76.2899 236.941H11.8389C11.73 236.941 11.6256 236.898 11.5486 236.821C11.4716 236.744 11.4283 236.639 11.4283 236.531C11.4283 236.422 11.4716 236.317 11.5486 236.24C11.6256 236.163 11.73 236.12 11.8389 236.12H76.2899C76.3987 236.12 76.5032 236.163 76.5801 236.24C76.6571 236.317 76.7004 236.422 76.7004 236.531C76.7004 236.639 76.6571 236.744 76.5801 236.821C76.5032 236.898 76.3987 236.941 76.2899 236.941Z" fill="#CCCCCC"/>
<path d="M240.086 236.941H175.635C175.526 236.941 175.421 236.898 175.344 236.821C175.267 236.744 175.224 236.639 175.224 236.531C175.224 236.422 175.267 236.317 175.344 236.24C175.421 236.163 175.526 236.12 175.635 236.12H240.086C240.195 236.12 240.299 236.163 240.376 236.24C240.453 236.317 240.496 236.422 240.496 236.531C240.496 236.639 240.453 236.744 240.376 236.821C240.299 236.898 240.195 236.941 240.086 236.941Z" fill="#CCCCCC"/>
<path d="M163.319 220.11H98.8682C98.7593 220.11 98.6548 220.067 98.5779 219.99C98.5009 219.913 98.4576 219.808 98.4576 219.699C98.4576 219.591 98.5009 219.486 98.5779 219.409C98.6548 219.332 98.7593 219.289 98.8682 219.289H163.319C163.428 219.289 163.532 219.332 163.609 219.409C163.686 219.486 163.73 219.591 163.73 219.699C163.73 219.808 163.686 219.913 163.609 219.99C163.532 220.067 163.428 220.11 163.319 220.11Z" fill="#CCCCCC"/>
<path d="M129.258 198.266C132.595 198.266 135.3 195.561 135.3 192.224C135.3 188.887 132.595 186.182 129.258 186.182C125.92 186.182 123.215 188.887 123.215 192.224C123.215 195.561 125.92 198.266 129.258 198.266Z" fill="white"/>
<path d="M129.258 194.238C130.37 194.238 131.272 193.336 131.272 192.224C131.272 191.112 130.37 190.21 129.258 190.21C128.145 190.21 127.244 191.112 127.244 192.224C127.244 193.336 128.145 194.238 129.258 194.238Z" fill="#3F3D56"/>
<path d="M134.054 203.399C134.241 204.425 134.013 205.482 133.42 206.339C132.827 207.196 131.917 207.782 130.892 207.969C129.867 208.156 128.809 207.927 127.952 207.334C127.095 206.741 126.509 205.832 126.322 204.807L126.321 204.799C125.934 202.664 127.585 201.908 129.721 201.521C131.856 201.135 133.668 201.264 134.054 203.399Z" fill="white"/>
</g>
<defs>
<clipPath id="clip0">
<rect width="263" height="236.941" fill="white"/>
</clipPath>
</defs>
</svg>
