<svg width="155" height="48" viewBox="0 0 155 48" fill="none" xmlns="http://www.w3.org/2000/svg">
<line x1="2.5991" y1="-2.5991" x2="23.225" y2="-2.5991" transform="matrix(-0.707107 -0.707107 -0.707107 0.707107 18.2604 26.6737)" stroke="white" stroke-width="5.1982" stroke-linecap="round"/>
<path d="M18.0618 24.0546L9.68421 32.4321" stroke="white" stroke-width="5.1982" stroke-linecap="round"/>
<circle r="2.9285" transform="matrix(1 0 0 -1 18.2359 23.5466)" fill="#0B1DD5"/>
<line x1="2.5991" y1="-2.5991" x2="23.225" y2="-2.5991" transform="matrix(-0.707107 0.707107 0.707107 0.707107 26.3129 29.0609)" stroke="white" stroke-width="5.1982" stroke-linecap="round"/>
<line x1="2.5991" y1="-2.5991" x2="16.0368" y2="-2.5991" transform="matrix(0.707107 0.707107 0.707107 -0.707107 23.4298 24.9917)" stroke="white" stroke-width="5.1982" stroke-linecap="round"/>
<circle r="2.93473" transform="matrix(0 -1 -1 0 23.2406 28.8636)" fill="#0B1DD5"/>
<line x1="2.5991" y1="-2.5991" x2="23.225" y2="-2.5991" transform="matrix(0.707171 -0.707043 -0.707042 -0.707171 20.5117 18.2614)" stroke="white" stroke-width="5.1982" stroke-linecap="round"/>
<line x1="2.5991" y1="-2.5991" x2="16.0368" y2="-2.5991" transform="matrix(-0.707043 -0.707171 -0.707171 0.707042 23.1731 22.2382)" stroke="white" stroke-width="5.1982" stroke-linecap="round"/>
<circle r="2.9285" transform="matrix(-9.08269e-05 1 1 9.08269e-05 23.5471 18.5485)" fill="#0B1DD5"/>
<path d="M51.7989 35.6835C56.2537 35.6835 59.2548 33.5147 59.9582 30.1736L55.3393 29.8688C54.8352 31.2404 53.5457 31.9555 51.881 31.9555C49.384 31.9555 47.8014 30.3026 47.8014 27.618V27.6063H60.0637V26.2347C60.0637 20.1152 56.3592 17.0907 51.5996 17.0907C46.3008 17.0907 42.8659 20.8538 42.8659 26.4105C42.8659 32.1197 46.2539 35.6835 51.7989 35.6835ZM47.8014 24.5114C47.9069 22.4598 49.466 20.8186 51.6817 20.8186C53.8505 20.8186 55.351 22.3661 55.3628 24.5114H47.8014ZM77.3145 22.4598C76.869 19.1422 74.1961 17.0907 69.6476 17.0907C65.0404 17.0907 62.0041 19.2243 62.0158 22.6943C62.0041 25.3906 63.704 27.1373 67.2209 27.8407L70.3392 28.4621C71.9101 28.7786 72.6252 29.353 72.6487 30.2557C72.6252 31.3225 71.4647 32.0845 69.7179 32.0845C67.936 32.0845 66.752 31.3225 66.4472 29.8571L61.5352 30.115C62.0041 33.5616 64.9349 35.6835 69.7062 35.6835C74.372 35.6835 77.7131 33.3037 77.7248 29.7516C77.7131 27.1491 76.0132 25.5899 72.5197 24.8748L69.2607 24.2183C67.5843 23.8549 66.963 23.2805 66.9747 22.4129C66.963 21.3344 68.1822 20.631 69.7296 20.631C71.4647 20.631 72.4963 21.5806 72.7425 22.7412L77.3145 22.4598ZM88.015 35.6835C92.8097 35.6835 95.8225 32.8699 96.057 28.7317H91.3443C91.0512 30.6543 89.7851 31.7328 88.0736 31.7328C85.7407 31.7328 84.2284 29.775 84.2284 26.3285C84.2284 22.9288 85.7524 20.9827 88.0736 20.9827C89.9024 20.9827 91.0747 22.1902 91.3443 23.9838H96.057C95.846 19.8221 92.6925 17.0907 87.9915 17.0907C82.5286 17.0907 79.1523 20.8772 79.1523 26.3988C79.1523 31.8735 82.4699 35.6835 88.015 35.6835ZM98.2641 35.3318H103.258V25.1444C103.258 22.9288 104.876 21.4048 107.08 21.4048C107.772 21.4048 108.721 21.522 109.19 21.6744V17.2431C108.745 17.1376 108.123 17.0672 107.619 17.0672C105.603 17.0672 103.95 18.2395 103.293 20.4669H103.106V17.3251H98.2641V35.3318ZM118.079 35.6835C123.542 35.6835 126.942 31.9438 126.942 26.3988C126.942 20.8186 123.542 17.0907 118.079 17.0907C112.616 17.0907 109.217 20.8186 109.217 26.3988C109.217 31.9438 112.616 35.6835 118.079 35.6835ZM118.103 31.8149C115.582 31.8149 114.293 29.5054 114.293 26.3636C114.293 23.2218 115.582 20.9007 118.103 20.9007C120.576 20.9007 121.866 23.2218 121.866 26.3636C121.866 29.5054 120.576 31.8149 118.103 31.8149ZM132.3 35.3318H137.575L140.67 24.0073H140.893L143.988 35.3318H149.275L154.163 17.3251H149.122L146.379 29.353H146.227L143.272 17.3251H138.314L135.406 29.4234H135.242L132.452 17.3251H127.399L132.3 35.3318Z" fill="white"/>
</svg>
