<svg width="462" height="458" viewBox="0 0 462 458" fill="none" xmlns="http://www.w3.org/2000/svg">
<g clip-path="url(#clip0)">
<path opacity="0.1" d="M6.67334 219.545C16.4635 257.332 37.1712 289.996 69.8953 305.83C137.925 338.736 291.35 321.765 405.856 302.284C465.087 292.208 517.15 264.402 554.969 225.27L6.67334 219.545Z" fill="#7A86FF"/>
<path opacity="0.1" d="M607.138 41.6795H544.311C541.329 41.6795 538.883 39.473 538.883 36.7768C538.883 34.0805 541.329 31.8684 544.311 31.8684H555.177C552.19 31.8684 549.75 29.6619 549.75 26.9601C549.75 24.2582 552.19 22.0573 555.177 22.0573H547.422C544.435 22.0573 541.988 19.8508 541.988 17.149C541.988 14.4471 544.435 12.2463 547.422 12.2463H580.214C572.937 9.1898 564.432 7.01707 554.631 5.87442C465.211 -4.49954 433.288 2.36202 422.026 9.41496C407.99 18.3155 392.398 24.4914 376.068 27.6186C320.901 37.9025 217.729 50.2747 124.218 23.6784C77.741 10.4338 43.1963 32.7859 22.4943 70.1502H618.05C617.272 59.2921 614.944 49.2615 610.672 40.4862C609.66 41.2663 608.416 41.6864 607.138 41.6795V41.6795Z" fill="#7A86FF"/>
<path opacity="0.1" d="M1.34709 140.674C-1.0661 162.65 -0.245785 184.86 3.78195 206.599L555.392 224.831C570.576 209.103 583.477 191.327 593.718 172.021L1.34709 140.674ZM219.515 187.703H208.654C211.642 187.703 214.088 189.915 214.088 192.611C214.088 195.307 211.642 197.514 208.654 197.514H145.827C142.845 197.514 140.399 195.307 140.399 192.611C140.399 189.915 142.845 187.703 145.827 187.703H156.694C153.706 187.703 151.266 185.496 151.266 182.8C151.266 180.104 153.706 177.892 156.694 177.892H148.933C145.945 177.892 143.499 175.685 143.499 172.989C143.499 170.293 145.945 168.081 148.933 168.081H211.76C214.747 168.081 217.188 170.287 217.188 172.989C217.188 175.691 214.747 177.892 211.76 177.892H219.515C222.503 177.892 224.943 180.098 224.943 182.8C224.943 185.502 222.503 187.703 219.515 187.703Z" fill="#7A86FF"/>
<path opacity="0.1" d="M618.072 70.4879L15.8492 83.7157C8.52208 100.732 3.66362 119.971 1.42603 139.908H607.521C611.466 128.244 614.392 116.26 616.269 104.092C618.078 92.3785 618.799 81.0476 618.072 70.4879ZM123.699 113.858H112.838C115.825 113.858 118.271 116.07 118.271 118.766C118.271 121.463 115.825 123.675 112.838 123.675H50.0106C47.029 123.675 44.5829 121.463 44.5829 118.766C44.5829 116.07 47.029 113.858 50.0106 113.858H60.8773C57.8901 113.858 55.4496 111.652 55.4496 108.955C55.4496 106.259 57.8901 104.047 60.8773 104.047H53.1162C50.1289 104.047 47.6828 101.841 47.6828 99.1443C47.6828 96.4481 50.1289 94.236 53.1162 94.236H115.944C118.931 94.236 121.371 96.4425 121.371 99.1443C121.371 101.846 118.931 104.047 115.944 104.047H123.699C126.686 104.047 129.127 106.259 129.127 108.955C129.127 111.652 126.686 113.858 123.699 113.858Z" fill="#7A86FF"/>
<path opacity="0.1" d="M307.221 440.23C446.358 440.23 559.151 429.867 559.151 417.084C559.151 404.301 446.358 393.938 307.221 393.938C168.084 393.938 55.2917 404.301 55.2917 417.084C55.2917 429.867 168.084 440.23 307.221 440.23Z" fill="#7A86FF"/>
<path d="M457.862 242.522C460.663 242.522 462.934 240.985 462.934 239.089C462.934 237.192 460.663 235.655 457.862 235.655C455.06 235.655 452.789 237.192 452.789 239.089C452.789 240.985 455.06 242.522 457.862 242.522Z" fill="#575A89"/>
<path d="M292.516 430.216C388.547 430.216 466.395 352.47 466.395 256.566C466.395 160.662 388.547 82.9164 292.516 82.9164C196.486 82.9164 118.638 160.662 118.638 256.566C118.638 352.47 196.486 430.216 292.516 430.216Z" fill="#7A86FF"/>
<path d="M383.75 343.83C383.75 371.243 340.599 346.172 294.337 346.172C248.074 346.172 201.282 370.207 201.282 342.794C201.282 327.163 216.196 305.424 237.591 289.636C253.711 277.736 273.505 269.214 293.39 269.214C313.838 269.214 333.87 278.44 349.848 291.105C370.015 307.074 383.75 328.531 383.75 343.83Z" fill="#444053"/>
<path d="M349.843 291.094C325.252 287.395 280.776 282.887 237.591 289.624C253.711 277.725 273.505 269.203 293.39 269.203C313.833 269.203 333.864 278.429 349.843 291.094Z" fill="#F6F8FB"/>
<path opacity="0.05" d="M201.282 133.987C201.282 133.987 148.904 167.428 149.333 219.737C149.761 272.046 201.282 133.987 201.282 133.987Z" fill="black"/>
<path d="M466.327 39.5406C466.327 39.5406 418.87 36.6868 424.467 69.897C424.467 69.897 423.34 75.7622 428.683 78.4303C428.683 78.4303 428.767 75.9705 433.547 76.8036C435.25 77.0882 436.981 77.1713 438.704 77.0512C441.032 76.8932 443.245 75.98 445.005 74.4507V74.4507C445.005 74.4507 458.346 68.9513 463.537 47.1733C463.537 47.1733 467.376 42.4226 467.224 41.2068L459.214 44.6178C459.214 44.6178 461.948 50.3874 459.778 55.1832C459.778 55.1832 459.519 44.8317 457.98 45.0513C457.67 45.1019 453.82 47.0495 453.82 47.0495C453.82 47.0495 458.527 57.1026 454.948 64.4032C454.948 64.4032 456.295 52.0198 452.321 47.7756L446.685 51.0629C446.685 51.0629 452.186 61.4425 448.455 69.9139C448.455 69.9139 449.413 56.9225 445.501 51.8622L440.389 55.8418C440.389 55.8418 445.558 66.075 442.407 73.0998C442.407 73.0998 441.996 57.9751 439.285 56.8324C439.285 56.8324 434.815 60.7726 434.133 62.3881C434.133 62.3881 437.673 69.8125 435.48 73.7302C435.48 73.7302 434.133 63.6546 433.028 63.5983C433.028 63.5983 428.576 70.2741 428.108 74.856C428.108 74.856 428.305 68.0451 431.946 62.9622C431.946 62.9622 427.64 63.6996 425.132 66.4915C425.132 66.4915 425.825 61.7689 433.023 61.358C433.023 61.358 436.703 56.2921 437.69 55.9881C437.69 55.9881 430.503 55.3858 426.146 57.3165C426.146 57.3165 429.979 52.8641 439.003 54.8849L444.075 50.7758C444.075 50.7758 434.618 49.4812 430.605 50.9109C430.605 50.9109 435.221 46.9707 445.434 49.8414L450.929 46.5598C450.929 46.5598 442.864 44.8261 438.056 45.434C438.056 45.434 443.129 42.704 452.535 45.6648L456.481 43.903C456.481 43.903 450.568 42.7434 448.838 42.5633C447.108 42.3832 447.018 41.8991 447.018 41.8991C450.772 41.2894 454.623 41.7358 458.138 43.1881C458.138 43.1881 466.468 40.0641 466.327 39.5406Z" fill="#7A86FF"/>
<path d="M417.653 24.776C417.653 24.776 396.235 23.4813 398.738 38.4878C398.738 38.4878 398.236 41.139 400.643 42.3436C400.643 42.3436 400.676 41.2178 402.841 41.6118C403.61 41.7382 404.391 41.776 405.168 41.7244C406.221 41.6494 407.222 41.2367 408.02 40.548V40.548C408.02 40.548 414.046 38.06 416.39 28.2208C416.39 28.2208 418.126 26.0762 418.081 25.5246L414.463 27.0669C414.463 27.0669 415.703 29.673 414.728 31.8402C414.728 31.8402 414.609 27.1626 413.916 27.2752C413.775 27.2752 412.033 28.1758 412.033 28.1758C412.033 28.1758 414.164 32.7183 412.558 36.0168C412.558 36.0168 413.166 30.4217 411.374 28.5023L408.826 29.9883C408.826 29.9883 411.312 34.6827 409.627 38.5103C409.627 38.5103 410.055 32.6394 408.291 30.3541L405.98 32.1497C405.98 32.1497 408.313 36.771 406.893 39.9457C406.893 39.9457 406.707 33.1123 405.478 32.5944C405.478 32.5944 403.461 34.3731 403.151 35.1049C403.151 35.1049 404.751 38.4822 403.759 40.2328C403.759 40.2328 403.151 35.679 402.632 35.6621C402.632 35.6621 400.62 38.6736 400.411 40.7281C400.508 38.8161 401.105 36.9628 402.142 35.3526C400.982 35.5717 399.912 36.1255 399.064 36.9455C399.064 36.9455 399.374 34.8122 402.638 34.6264C402.638 34.6264 404.3 32.3411 404.746 32.2004C404.746 32.2004 401.499 31.9302 399.532 32.8027C399.532 32.8027 401.263 30.7876 405.343 31.6769L407.598 29.825C407.598 29.825 403.325 29.2621 401.511 29.8813C401.511 29.8813 403.596 28.1026 408.212 29.4029L410.692 27.9169C410.692 27.9169 407.051 27.1344 404.875 27.4159C404.875 27.4159 407.169 26.1832 411.419 27.5228L413.195 26.7235C413.195 26.7235 410.523 26.2001 409.745 26.1213C408.967 26.0424 408.917 25.8229 408.917 25.8229C410.609 25.5418 412.346 25.7367 413.933 26.3858C413.933 26.3858 417.715 25.0124 417.653 24.776Z" fill="#7A86FF"/>
<path opacity="0.1" d="M26.3608 454.088C34.7437 454.088 41.5393 452.941 41.5393 451.527C41.5393 450.112 34.7437 448.966 26.3608 448.966C17.978 448.966 11.1824 450.112 11.1824 451.527C11.1824 452.941 17.978 454.088 26.3608 454.088Z" fill="#7A86FF"/>
<path opacity="0.1" d="M114.472 457.302C122.855 457.302 129.651 456.155 129.651 454.741C129.651 453.326 122.855 452.18 114.472 452.18C106.09 452.18 99.294 453.326 99.294 454.741C99.294 456.155 106.09 457.302 114.472 457.302Z" fill="#7A86FF"/>
<path d="M33.4456 382.917C33.4456 382.917 36.5399 386.958 32.014 393.049C27.4881 399.139 23.7569 404.306 25.2505 408.111C25.2505 408.111 32.076 396.775 37.6502 396.612C43.2245 396.448 39.5553 389.733 33.4456 382.917Z" fill="#7A86FF"/>
<path opacity="0.1" d="M33.4456 382.917C33.7143 383.307 33.9268 383.734 34.0769 384.183C39.499 390.544 42.3847 396.482 37.1768 396.628C32.3184 396.769 26.4679 405.438 25.0983 407.627C25.1462 407.797 25.2026 407.964 25.2674 408.128C25.2674 408.128 32.0929 396.792 37.6672 396.628C43.2415 396.465 39.5553 389.733 33.4456 382.917Z" fill="black"/>
<path d="M39.2002 388.067C39.2002 389.491 39.0368 390.645 38.8395 390.645C38.6423 390.645 38.4844 389.519 38.4844 388.067C38.4844 386.615 38.6817 387.313 38.8846 387.313C39.0875 387.313 39.2002 386.643 39.2002 388.067Z" fill="#FFD037"/>
<path d="M41.1504 389.767C39.8991 390.448 38.8113 390.859 38.7155 390.684C38.6197 390.51 39.561 389.823 40.8122 389.142C42.0635 388.461 41.5675 388.956 41.6633 389.142C41.7591 389.328 42.4242 389.086 41.1504 389.767Z" fill="#FFD037"/>
<path d="M17.0892 382.917C17.0892 382.917 13.9949 386.958 18.5152 393.049C23.0355 399.139 26.7723 404.306 25.2787 408.111C25.2787 408.111 18.4475 396.775 12.8789 396.612C7.31029 396.448 10.9739 389.733 17.0892 382.917Z" fill="#7A86FF"/>
<path opacity="0.1" d="M17.0891 382.917C16.818 383.306 16.6053 383.732 16.4579 384.183C11.0358 390.544 8.14439 396.482 13.3579 396.628C18.2108 396.769 24.0668 405.438 25.4308 407.627C25.3848 407.797 25.3303 407.964 25.2673 408.128C25.2673 408.128 18.4362 396.792 12.8676 396.628C7.29895 396.465 10.9738 389.733 17.0891 382.917Z" fill="black"/>
<path d="M11.3346 388.067C11.3346 389.491 11.4924 390.645 11.6897 390.645C11.887 390.645 12.0448 389.519 12.0448 388.067C12.0448 386.615 11.8475 387.313 11.6502 387.313C11.453 387.313 11.3346 386.643 11.3346 388.067Z" fill="#FFD037"/>
<path d="M9.35614 389.767C10.6074 390.448 11.7008 390.859 11.7966 390.684C11.8925 390.51 10.9512 389.823 9.69995 389.142C8.44871 388.461 8.93906 388.956 8.84888 389.142C8.7587 389.328 8.10489 389.086 9.35614 389.767Z" fill="#FFD037"/>
<path d="M12.3209 407.599C12.3209 407.599 20.9782 407.335 23.5934 405.477C26.2086 403.62 36.9119 401.407 37.56 404.351C38.2082 407.295 50.5685 419.155 40.7953 419.234C31.022 419.313 18.0868 417.709 15.4828 416.127C12.8789 414.545 12.3209 407.599 12.3209 407.599Z" fill="#A8A8A8"/>
<path opacity="0.2" d="M40.9587 418.227C31.1854 418.305 18.2502 416.701 15.6463 415.119C13.6623 413.915 12.8732 409.586 12.6083 407.588H12.3209C12.3209 407.588 12.8845 414.562 15.4715 416.144C18.0586 417.726 31.0107 419.33 40.784 419.251C43.6021 419.251 44.5772 418.221 44.5265 416.74C44.1319 417.647 43.061 418.21 40.9587 418.227Z" fill="black"/>
<path d="M230.698 233.797C234.006 233.612 249.579 232.441 259.471 226.806C261.06 225.873 262.854 225.345 264.696 225.27C267.841 225.18 271.459 226.491 269.143 233.831C265.389 245.838 243.594 259.347 230.067 258.598C217.058 257.878 201.626 252.643 191.436 234.237C190.459 232.466 189.978 230.465 190.043 228.444C190.162 224.729 191.515 220.074 198.498 225.264C207.933 232.272 225.834 233.6 229.424 233.797C229.848 233.82 230.274 233.82 230.698 233.797V233.797Z" fill="#444053"/>
<path d="M355.823 233.797C359.131 233.612 374.704 232.441 384.596 226.806C386.185 225.873 387.979 225.345 389.821 225.27C392.966 225.18 396.584 226.491 394.268 233.831C390.514 245.838 368.719 259.347 355.192 258.598C342.183 257.878 326.751 252.643 316.561 234.237C315.584 232.466 315.103 230.465 315.168 228.444C315.287 224.729 316.64 220.074 323.623 225.264C333.058 232.272 350.959 233.6 354.549 233.797C354.973 233.82 355.399 233.82 355.823 233.797V233.797Z" fill="#444053"/>
</g>
<defs>
<clipPath id="clip0">
<rect width="620" height="456.73" fill="white" transform="translate(0 0.572144)"/>
</clipPath>
</defs>
</svg>
