<svg width="620" height="457" viewBox="0 0 620 457" fill="none" xmlns="http://www.w3.org/2000/svg">
<g clip-path="url(#clip0)">
<path opacity="0.1" d="M6.67334 218.974C16.4635 256.76 37.1712 289.424 69.8953 305.258C137.925 338.164 291.35 321.193 405.856 301.712C465.087 291.636 517.15 263.83 554.969 224.698L6.67334 218.974Z" fill="#7A86FF"/>
<path opacity="0.1" d="M607.138 41.107H544.311C541.329 41.107 538.883 38.9005 538.883 36.2043C538.883 33.508 541.329 31.2959 544.311 31.2959H555.177C552.19 31.2959 549.75 29.0894 549.75 26.3875C549.75 23.6857 552.19 21.4848 555.177 21.4848H547.422C544.435 21.4848 541.989 19.2783 541.989 16.5765C541.989 13.8746 544.435 11.6738 547.422 11.6738H580.214C572.937 8.61729 564.432 6.44456 554.631 5.30191C465.211 -5.07205 433.288 1.78951 422.026 8.84245C407.99 17.743 392.398 23.9189 376.068 27.0461C320.901 37.33 217.729 49.7022 124.218 23.1059C77.741 9.86127 43.1964 32.2134 22.4944 69.5777H618.05C617.272 58.7196 614.944 48.689 610.672 39.9137C609.66 40.6938 608.416 41.1139 607.138 41.107V41.107Z" fill="#7A86FF"/>
<path opacity="0.1" d="M1.34709 140.102C-1.0661 162.078 -0.245785 184.288 3.78195 206.027L555.392 224.258C570.576 208.531 583.477 190.754 593.718 171.449L1.34709 140.102ZM219.515 187.131H208.654C211.642 187.131 214.088 189.343 214.088 192.039C214.088 194.735 211.642 196.942 208.654 196.942H145.827C142.845 196.942 140.399 194.735 140.399 192.039C140.399 189.343 142.845 187.131 145.827 187.131H156.694C153.706 187.131 151.266 184.924 151.266 182.228C151.266 179.532 153.706 177.319 156.694 177.319H148.933C145.945 177.319 143.499 175.113 143.499 172.417C143.499 169.721 145.945 167.508 148.933 167.508H211.76C214.747 167.508 217.188 169.715 217.188 172.417C217.188 175.119 214.747 177.319 211.76 177.319H219.515C222.503 177.319 224.943 179.526 224.943 182.228C224.943 184.93 222.503 187.131 219.515 187.131Z" fill="#7A86FF"/>
<path opacity="0.1" d="M618.072 69.916L15.8492 83.1438C8.52208 100.16 3.66362 119.399 1.42603 139.337H607.521C611.466 127.672 614.392 115.689 616.269 103.52C618.078 91.8066 618.799 80.4757 618.072 69.916ZM123.699 113.286H112.838C115.825 113.286 118.271 115.498 118.271 118.195C118.271 120.891 115.825 123.103 112.838 123.103H50.0106C47.029 123.103 44.5829 120.891 44.5829 118.195C44.5829 115.498 47.029 113.286 50.0106 113.286H60.8773C57.8901 113.286 55.4496 111.08 55.4496 108.384C55.4496 105.687 57.8901 103.475 60.8773 103.475H53.1162C50.1289 103.475 47.6828 101.269 47.6828 98.5724C47.6828 95.8762 50.1289 93.6641 53.1162 93.6641H115.944C118.931 93.6641 121.371 95.8706 121.371 98.5724C121.371 101.274 118.931 103.475 115.944 103.475H123.699C126.686 103.475 129.127 105.687 129.127 108.384C129.127 111.08 126.686 113.286 123.699 113.286Z" fill="#7A86FF"/>
<path opacity="0.1" d="M307.221 439.658C446.358 439.658 559.151 429.295 559.151 416.512C559.151 403.729 446.358 393.366 307.221 393.366C168.084 393.366 55.2917 403.729 55.2917 416.512C55.2917 429.295 168.084 439.658 307.221 439.658Z" fill="#7A86FF"/>
<path opacity="0.1" d="M481.731 426.638C480.091 426.7 470.769 426.638 470.769 426.638C470.632 426.495 470.504 426.345 470.385 426.188C472.77 425.377 477.921 424.161 481.731 426.638Z" fill="black"/>
<path opacity="0.1" d="M508.396 426.638C506.756 426.7 497.434 426.638 497.434 426.638C497.297 426.495 497.169 426.345 497.051 426.188C499.423 425.377 504.575 424.161 508.396 426.638Z" fill="black"/>
<path d="M457.862 241.95C460.663 241.95 462.934 240.413 462.934 238.517C462.934 236.62 460.663 235.083 457.862 235.083C455.06 235.083 452.789 236.62 452.789 238.517C452.789 240.413 455.06 241.95 457.862 241.95Z" fill="#575A89"/>
<path d="M292.516 429.644C388.547 429.644 466.395 351.899 466.395 255.994C466.395 160.09 388.547 82.3447 292.516 82.3447C196.486 82.3447 118.638 160.09 118.638 255.994C118.638 351.899 196.486 429.644 292.516 429.644Z" fill="#7A86FF"/>
<path d="M383.75 343.258C383.75 370.67 340.599 345.599 294.337 345.599C248.074 345.599 201.282 369.634 201.282 342.222C201.282 326.591 216.196 304.852 237.591 289.063C253.711 277.164 273.505 268.642 293.39 268.642C313.838 268.642 333.87 277.867 349.848 290.532C370.015 306.501 383.75 327.958 383.75 343.258Z" fill="#444053"/>
<path d="M349.843 290.521C325.252 286.823 280.776 282.315 237.591 289.052C253.711 277.153 273.505 268.631 293.39 268.631C313.833 268.631 333.864 277.857 349.843 290.521Z" fill="#F6F8FB"/>
<path opacity="0.05" d="M201.282 133.415C201.282 133.415 148.904 166.856 149.333 219.165C149.761 271.474 201.282 133.415 201.282 133.415Z" fill="black"/>
<path d="M466.327 38.9686C466.327 38.9686 418.87 36.1148 424.467 69.325C424.467 69.325 423.34 75.1902 428.683 77.8583C428.683 77.8583 428.767 75.3985 433.547 76.2315C435.25 76.5161 436.981 76.5993 438.704 76.4792C441.032 76.3211 443.245 75.408 445.005 73.8787V73.8787C445.005 73.8787 458.346 68.3793 463.537 46.6013C463.537 46.6013 467.376 41.8506 467.224 40.6347L459.214 44.0458C459.214 44.0458 461.948 49.8154 459.778 54.6112C459.778 54.6112 459.519 44.2597 457.98 44.4792C457.67 44.5299 453.82 46.4775 453.82 46.4775C453.82 46.4775 458.527 56.5306 454.948 63.8312C454.948 63.8312 456.295 51.4477 452.321 47.2036L446.685 50.4909C446.685 50.4909 452.186 60.8704 448.455 69.3418C448.455 69.3418 449.413 56.3505 445.501 51.2901L440.389 55.2697C440.389 55.2697 445.558 65.503 442.407 72.5278C442.407 72.5278 441.996 57.4031 439.285 56.2604C439.285 56.2604 434.815 60.2006 434.133 61.8161C434.133 61.8161 437.673 69.2405 435.48 73.1582C435.48 73.1582 434.133 63.0826 433.028 63.0263C433.028 63.0263 428.576 69.7021 428.108 74.284C428.108 74.284 428.305 67.4731 431.946 62.3902C431.946 62.3902 427.64 63.1276 425.132 65.9195C425.132 65.9195 425.825 61.1969 433.023 60.786C433.023 60.786 436.703 55.72 437.69 55.4161C437.69 55.4161 430.503 54.8138 426.146 56.7445C426.146 56.7445 429.979 52.2921 439.003 54.3128L444.075 50.2038C444.075 50.2038 434.618 48.9091 430.605 50.3389C430.605 50.3389 435.221 46.3987 445.434 49.2694L450.929 45.9878C450.929 45.9878 442.864 44.2541 438.056 44.862C438.056 44.862 443.129 42.132 452.535 45.0928L456.481 43.331C456.481 43.331 450.568 42.1714 448.838 41.9913C447.108 41.8112 447.018 41.3271 447.018 41.3271C450.772 40.7174 454.623 41.1638 458.138 42.6161C458.138 42.6161 466.468 39.4921 466.327 38.9686Z" fill="#7A86FF"/>
<path d="M417.653 24.2038C417.653 24.2038 396.235 22.9092 398.738 37.9157C398.738 37.9157 398.236 40.5669 400.643 41.7714C400.643 41.7714 400.676 40.6457 402.841 41.0397C403.61 41.1661 404.391 41.2039 405.168 41.1523C406.221 41.0772 407.222 40.6646 408.02 39.9758V39.9758C408.02 39.9758 414.046 37.4879 416.39 27.6487C416.39 27.6487 418.126 25.5041 418.081 24.9525L414.463 26.4948C414.463 26.4948 415.703 29.1009 414.728 31.268C414.728 31.268 414.609 26.5904 413.916 26.703C413.775 26.703 412.033 27.6036 412.033 27.6036C412.033 27.6036 414.164 32.1461 412.558 35.4446C412.558 35.4446 413.166 29.8495 411.374 27.9301L408.826 29.4161C408.826 29.4161 411.312 34.1106 409.627 37.9382C409.627 37.9382 410.055 32.0673 408.291 29.782L405.98 31.5776C405.98 31.5776 408.313 36.1989 406.893 39.3735C406.893 39.3735 406.707 32.5401 405.478 32.0223C405.478 32.0223 403.461 33.801 403.151 34.5327C403.151 34.5327 404.751 37.91 403.759 39.6606C403.759 39.6606 403.151 35.1069 402.632 35.09C402.632 35.09 400.62 38.1014 400.411 40.156C400.508 38.244 401.105 36.3907 402.142 34.7804C400.982 34.9995 399.912 35.5534 399.064 36.3734C399.064 36.3734 399.374 34.24 402.638 34.0543C402.638 34.0543 404.3 31.769 404.746 31.6283C404.746 31.6283 401.499 31.3581 399.532 32.2305C399.532 32.2305 401.263 30.2154 405.343 31.1048L407.598 29.2529C407.598 29.2529 403.325 28.69 401.511 29.3092C401.511 29.3092 403.596 27.5305 408.212 28.8307L410.692 27.3447C410.692 27.3447 407.051 26.5623 404.875 26.8437C404.875 26.8437 407.169 25.611 411.419 26.9507L413.195 26.1514C413.195 26.1514 410.523 25.6279 409.745 25.5491C408.967 25.4703 408.917 25.2508 408.917 25.2508C410.609 24.9697 412.346 25.1646 413.933 25.8137C413.933 25.8137 417.715 24.4402 417.653 24.2038Z" fill="#7A86FF"/>
<path opacity="0.1" d="M604.822 410.911C613.204 410.911 620 409.765 620 408.35C620 406.936 613.204 405.789 604.822 405.789C596.439 405.789 589.643 406.936 589.643 408.35C589.643 409.765 596.439 410.911 604.822 410.911Z" fill="#7A86FF"/>
<path opacity="0.1" d="M26.3608 453.516C34.7437 453.516 41.5393 452.369 41.5393 450.955C41.5393 449.54 34.7437 448.394 26.3608 448.394C17.978 448.394 11.1824 449.54 11.1824 450.955C11.1824 452.369 17.978 453.516 26.3608 453.516Z" fill="#7A86FF"/>
<path opacity="0.1" d="M114.472 456.73C122.855 456.73 129.651 455.583 129.651 454.169C129.651 452.754 122.855 451.607 114.472 451.607C106.09 451.607 99.2939 452.754 99.2939 454.169C99.2939 455.583 106.09 456.73 114.472 456.73Z" fill="#7A86FF"/>
<path d="M571.602 439.624C584.118 439.624 594.265 437.91 594.265 435.796C594.265 433.682 584.118 431.969 571.602 431.969C559.085 431.969 548.938 433.682 548.938 435.796C548.938 437.91 559.085 439.624 571.602 439.624Z" fill="#7A86FF"/>
<path d="M580.969 429.543C582.003 428.7 582.758 427.563 583.133 426.284C583.409 424.995 582.857 423.441 581.623 422.968C580.236 422.439 578.754 423.402 577.632 424.37C576.51 425.338 575.22 426.441 573.749 426.239C574.505 425.554 575.071 424.686 575.391 423.718C575.711 422.75 575.775 421.716 575.575 420.717C575.511 420.303 575.335 419.914 575.068 419.591C574.295 418.769 572.903 419.118 571.979 419.765C569.048 421.826 568.231 425.8 568.214 429.379C567.921 428.09 568.169 426.745 568.163 425.439C568.158 424.133 567.791 422.625 566.675 421.933C565.983 421.563 565.206 421.381 564.421 421.403C563.102 421.353 561.636 421.482 560.735 422.445C559.607 423.644 559.906 425.648 560.881 426.948C561.856 428.248 563.333 429.092 564.691 429.999C565.784 430.648 566.717 431.535 567.419 432.594C567.501 432.743 567.569 432.899 567.622 433.061H575.879C577.727 432.123 579.439 430.939 580.969 429.543V429.543Z" fill="#7A86FF"/>
<path d="M33.4457 382.345C33.4457 382.345 36.54 386.386 32.014 392.477C27.4881 398.567 23.7569 403.734 25.2505 407.539C25.2505 407.539 32.076 396.203 37.6503 396.04C43.2246 395.876 39.5554 389.161 33.4457 382.345Z" fill="#7A86FF"/>
<path opacity="0.1" d="M33.4456 382.345C33.7143 382.735 33.9268 383.162 34.0768 383.611C39.4989 389.972 42.3847 395.91 37.1768 396.057C32.3183 396.197 26.4679 404.866 25.0983 407.055C25.1461 407.225 25.2026 407.392 25.2674 407.556C25.2674 407.556 32.0929 396.22 37.6671 396.057C43.2414 395.893 39.5553 389.161 33.4456 382.345Z" fill="black"/>
<path d="M39.2003 387.495C39.2003 388.919 39.0369 390.073 38.8396 390.073C38.6423 390.073 38.4845 388.947 38.4845 387.495C38.4845 386.043 38.6818 386.741 38.8847 386.741C39.0876 386.741 39.2003 386.071 39.2003 387.495Z" fill="#FFD037"/>
<path d="M41.1503 389.195C39.8991 389.876 38.8113 390.287 38.7155 390.112C38.6196 389.938 39.5609 389.251 40.8121 388.57C42.0634 387.889 41.5674 388.384 41.6632 388.57C41.759 388.756 42.4241 388.514 41.1503 389.195Z" fill="#FFD037"/>
<path d="M17.0892 382.345C17.0892 382.345 13.9949 386.386 18.5152 392.477C23.0355 398.567 26.7723 403.734 25.2787 407.539C25.2787 407.539 18.4475 396.203 12.8789 396.04C7.31029 395.876 10.9739 389.161 17.0892 382.345Z" fill="#7A86FF"/>
<path opacity="0.1" d="M17.0892 382.345C16.818 382.734 16.6053 383.161 16.4579 383.611C11.0359 389.972 8.14445 395.91 13.358 396.057C18.2108 396.197 24.0669 404.866 25.4309 407.055C25.3849 407.225 25.3303 407.392 25.2674 407.556C25.2674 407.556 18.4363 396.22 12.8676 396.057C7.29901 395.893 10.9739 389.161 17.0892 382.345Z" fill="black"/>
<path d="M11.3346 387.495C11.3346 388.919 11.4924 390.073 11.6897 390.073C11.887 390.073 12.0448 388.947 12.0448 387.495C12.0448 386.043 11.8475 386.741 11.6502 386.741C11.453 386.741 11.3346 386.071 11.3346 387.495Z" fill="#FFD037"/>
<path d="M9.35614 389.195C10.6074 389.876 11.7008 390.287 11.7966 390.112C11.8925 389.938 10.9512 389.251 9.69995 388.57C8.44871 387.889 8.93906 388.384 8.84888 388.57C8.7587 388.756 8.10489 388.514 9.35614 389.195Z" fill="#FFD037"/>
<path d="M12.3208 407.027C12.3208 407.027 20.9781 406.762 23.5933 404.905C26.2085 403.047 36.9118 400.835 37.56 403.779C38.2081 406.723 50.5685 418.583 40.7952 418.662C31.0219 418.741 18.0867 417.136 15.4827 415.555C12.8788 413.973 12.3208 407.027 12.3208 407.027Z" fill="#A8A8A8"/>
<path opacity="0.2" d="M40.9587 417.654C31.1854 417.733 18.2501 416.129 15.6462 414.547C13.6622 413.342 12.8732 409.014 12.6083 407.016H12.3208C12.3208 407.016 12.8844 413.99 15.4715 415.571C18.0585 417.153 31.0106 418.757 40.7839 418.679C43.6021 418.679 44.5771 417.648 44.5264 416.168C44.1319 417.074 43.061 417.637 40.9587 417.654Z" fill="black"/>
<path d="M230.698 233.225C234.006 233.04 249.579 231.869 259.471 226.234C261.06 225.301 262.854 224.773 264.696 224.698C267.841 224.608 271.459 225.919 269.143 233.259C265.389 245.266 243.594 258.775 230.067 258.026C217.058 257.306 201.626 252.071 191.436 233.665C190.459 231.894 189.978 229.893 190.043 227.872C190.162 224.157 191.514 219.502 198.498 224.692C207.933 231.7 225.834 233.028 229.424 233.225C229.848 233.248 230.273 233.248 230.698 233.225V233.225Z" fill="#444053"/>
<path d="M355.823 233.225C359.131 233.04 374.704 231.869 384.596 226.234C386.185 225.301 387.979 224.773 389.821 224.698C392.966 224.608 396.584 225.919 394.268 233.259C390.514 245.266 368.719 258.775 355.192 258.026C342.183 257.306 326.751 252.071 316.561 233.665C315.584 231.894 315.103 229.893 315.168 227.872C315.287 224.157 316.639 219.502 323.623 224.692C333.058 231.7 350.959 233.028 354.549 233.225C354.973 233.248 355.398 233.248 355.823 233.225V233.225Z" fill="#444053"/>
</g>
<defs>
<clipPath id="clip0">
<rect width="620" height="456.73" fill="white"/>
</clipPath>
</defs>
</svg>
