<svg width="16" height="16" viewBox="0 0 16 16" fill="none" xmlns="http://www.w3.org/2000/svg">
<path d="M13.0693 2L10.8387 4.09133C9.992 3.806 9.048 3.62533 8.01 3.62533C2.964 3.62533 0 7.99267 0 7.99267C0 7.99267 1.28533 9.96 3.43067 11.418L1.49 13.3573L2.43267 14.3L14.0127 2.94333L13.0693 2V2ZM9.05867 5.85267C6.86667 4.884 4.60467 7.12467 5.54867 9.32333L4.398 10.4613C3.18867 9.688 2.248 8.69467 1.69133 8.02133C2.68667 6.92267 4.90267 4.95867 8.01 4.95867C8.628 4.95867 9.20733 5.038 9.75 5.16867L9.05867 5.85267V5.85267ZM7.13667 10.8067L10.53 7.478C11.208 9.552 9.19467 11.5227 7.13667 10.8067ZM16 7.99267C16 7.99267 13.1653 12.9587 8.01 12.9587C7.09067 12.9587 6.23533 12.7647 5.44267 12.4673L6.51867 11.412C6.99533 11.5407 7.49067 11.6253 8.01 11.6253C11.204 11.6253 13.4127 9.274 14.346 8.04933C13.86 7.50133 13.042 6.72267 11.9547 6.08133L12.9473 5.108C14.9353 6.37467 16 7.99267 16 7.99267V7.99267Z" fill="#040B52" fill-opacity="0.5"/>
</svg>
