<svg width="16" height="16" viewBox="0 0 16 16" fill="none" xmlns="http://www.w3.org/2000/svg">
<path d="M8.01 4.66634C11.1773 4.66634 13.3853 6.67434 14.346 7.75701C13.412 8.98168 11.204 11.333 8.01 11.333C5.06333 11.333 2.72333 8.97568 1.69133 7.72834C2.68667 6.63034 4.90267 4.66634 8.01 4.66634ZM8.01 3.33301C2.964 3.33301 0 7.70034 0 7.70034C0 7.70034 3.22333 12.6663 8.01 12.6663C13.1653 12.6663 16 7.70034 16 7.70034C16 7.70034 13.1393 3.33301 8.01 3.33301ZM8 5.33301C6.52733 5.33301 5.33333 6.52768 5.33333 7.99968C5.33333 9.47234 6.52733 10.6663 8 10.6663C9.47267 10.6663 10.6667 9.47234 10.6667 7.99968C10.6667 6.52768 9.47267 5.33301 8 5.33301Z" fill="#040B52" fill-opacity="0.5"/>
</svg>
