<svg width="108" height="33" viewBox="0 0 108 33" fill="none" xmlns="http://www.w3.org/2000/svg">
<line x1="1.80867" y1="-1.80867" x2="16.1618" y2="-1.80867" transform="matrix(-0.707107 -0.707107 -0.707107 0.707107 12.707 18.5968)" stroke="#050C57" stroke-width="3.61733" stroke-linecap="round"/>
<path d="M12.5689 16.7742L6.7391 22.604" stroke="#050C57" stroke-width="3.61733" stroke-linecap="round"/>
<circle r="2.03789" transform="matrix(1 0 0 -1 12.69 16.4207)" fill="#0B1DD5"/>
<line x1="1.80866" y1="-1.80866" x2="16.1618" y2="-1.80866" transform="matrix(-0.707107 0.707107 0.707107 0.707107 18.3106 20.2581)" stroke="#050C57" stroke-width="3.61733" stroke-linecap="round"/>
<line x1="1.80866" y1="-1.80866" x2="11.1597" y2="-1.80866" transform="matrix(0.707107 0.707107 0.707107 -0.707107 16.3043 17.4264)" stroke="#050C57" stroke-width="3.61733" stroke-linecap="round"/>
<circle r="2.04222" transform="matrix(0 -1 -1 0 16.1725 20.1207)" fill="#0B1DD5"/>
<line x1="1.80867" y1="-1.80867" x2="16.1618" y2="-1.80867" transform="matrix(0.707171 -0.707043 -0.707042 -0.707171 14.2738 12.7427)" stroke="#050C57" stroke-width="3.61733" stroke-linecap="round"/>
<line x1="1.80867" y1="-1.80867" x2="11.1597" y2="-1.80867" transform="matrix(-0.707043 -0.707171 -0.707171 0.707042 16.1258 15.5101)" stroke="#050C57" stroke-width="3.61733" stroke-linecap="round"/>
<circle r="2.03789" transform="matrix(-9.08269e-05 1 1 9.08269e-05 16.386 12.9426)" fill="#0B1DD5"/>
<path d="M36.0458 24.5983C39.1458 24.5983 41.2342 23.089 41.7237 20.7641L38.5095 20.5519C38.1587 21.5064 37.2613 22.004 36.1029 22.004C34.3653 22.004 33.264 20.8538 33.264 18.9856V18.9775H41.7971V18.023C41.7971 13.7646 39.2192 11.6599 35.9071 11.6599C32.2198 11.6599 29.8295 14.2785 29.8295 18.1454C29.8295 22.1183 32.1871 24.5983 36.0458 24.5983ZM33.264 16.8238C33.3374 15.3962 34.4224 14.2541 35.9642 14.2541C37.4734 14.2541 38.5176 15.3309 38.5258 16.8238H33.264ZM53.8016 15.3962C53.4916 13.0875 51.6316 11.6599 48.4663 11.6599C45.2603 11.6599 43.1474 13.1446 43.1556 15.5593C43.1474 17.4356 44.3303 18.6512 46.7776 19.1406L48.9476 19.573C50.0408 19.7933 50.5384 20.193 50.5547 20.8212C50.5384 21.5635 49.7308 22.0938 48.5153 22.0938C47.2753 22.0938 46.4513 21.5635 46.2392 20.5438L42.8211 20.7233C43.1474 23.1217 45.1869 24.5983 48.5071 24.5983C51.754 24.5983 54.0789 22.9422 54.0871 20.4704C54.0789 18.6593 52.8961 17.5743 50.465 17.0767L48.1971 16.6199C47.0305 16.367 46.5982 15.9672 46.6063 15.3635C46.5982 14.613 47.4466 14.1235 48.5234 14.1235C49.7308 14.1235 50.4487 14.7843 50.62 15.592L53.8016 15.3962ZM61.2478 24.5983C64.5844 24.5983 66.681 22.6404 66.8441 19.7606H63.5647C63.3607 21.0985 62.4797 21.849 61.2886 21.849C59.6652 21.849 58.6128 20.4867 58.6128 18.0883C58.6128 15.7225 59.6734 14.3683 61.2886 14.3683C62.5613 14.3683 63.377 15.2085 63.5647 16.4567H66.8441C66.6973 13.5607 64.5028 11.6599 61.2315 11.6599C57.43 11.6599 55.0805 14.2949 55.0805 18.1372C55.0805 21.9469 57.3892 24.5983 61.2478 24.5983ZM68.38 24.3535H71.8553V17.2643C71.8553 15.7225 72.9811 14.662 74.5147 14.662C74.9961 14.662 75.6568 14.7435 75.9832 14.8496V11.7659C75.6732 11.6925 75.2408 11.6436 74.89 11.6436C73.4868 11.6436 72.3366 12.4593 71.8797 14.0093H71.7492V11.823H68.38V24.3535ZM82.169 24.5983C85.9706 24.5983 88.3364 21.9959 88.3364 18.1372C88.3364 14.2541 85.9706 11.6599 82.169 11.6599C78.3675 11.6599 76.0017 14.2541 76.0017 18.1372C76.0017 21.9959 78.3675 24.5983 82.169 24.5983ZM82.1853 21.9062C80.4314 21.9062 79.534 20.2991 79.534 18.1127C79.534 15.9264 80.4314 14.3112 82.1853 14.3112C83.9067 14.3112 84.804 15.9264 84.804 18.1127C84.804 20.2991 83.9067 21.9062 82.1853 21.9062ZM92.0647 24.3535H95.7357L97.8894 16.473H98.0444L100.198 24.3535H103.877L107.279 11.823H103.771L101.862 20.193H101.756L99.7005 11.823H96.2497L94.2265 20.2419H94.1123L92.1707 11.823H88.6547L92.0647 24.3535Z" fill="#040B52"/>
</svg>
