<svg width="64" height="64" viewBox="0 0 64 64" fill="none" xmlns="http://www.w3.org/2000/svg">
<g clip-path="url(#clip0)">
<path d="M45.3333 26.0293V13.3333C45.3333 5.97067 39.3653 0 32 0C24.632 0 18.6667 5.97067 18.6667 13.3333V26.0293C13.7947 29.9387 10.6667 35.9333 10.6667 42.6667C10.6667 54.448 20.2187 64 32 64C43.7813 64 53.3333 54.448 53.3333 42.6667C53.3333 35.9333 50.2053 29.9387 45.3333 26.0293ZM24 13.3333C24 8.92267 27.5893 5.33333 32 5.33333C36.4107 5.33333 40 8.92267 40 13.3333V22.8987C37.528 21.896 34.832 21.3333 32 21.3333C29.168 21.3333 26.472 21.896 24 22.8987V13.3333ZM32 58.6667C23.176 58.6667 16 51.4907 16 42.6667C16 33.8427 23.176 26.6667 32 26.6667C40.824 26.6667 48 33.8427 48 42.6667C48 51.4907 40.824 58.6667 32 58.6667ZM37.3333 42.6667C37.3333 45.6107 34.944 48 32 48C29.056 48 26.6667 45.6107 26.6667 42.6667C26.6667 39.7227 29.056 37.3333 32 37.3333C34.944 37.3333 37.3333 39.7227 37.3333 42.6667Z" fill="#040B52"/>
</g>
<defs>
<clipPath id="clip0">
<rect width="64" height="64" fill="white"/>
</clipPath>
</defs>
</svg>
