<svg width="400" height="406" viewBox="0 0 400 406" fill="none" xmlns="http://www.w3.org/2000/svg">
<g clip-path="url(#clip0)">
<path d="M352.823 154.278C330.425 66.2046 253.033 2.62763 162.192 0.0776099C114.167 -1.27051 63.6308 14.6573 26.837 70.3945C-38.9359 170.031 30.8789 238.882 79.5519 271.599C103.067 287.437 124.255 306.481 142.503 328.18C175.38 367.194 238.628 415.674 313.954 339.713C368.55 284.656 367.742 212.944 352.823 154.278Z" fill="#F2F2F2"/>
<path d="M391.125 357.077C391.125 374.436 309.489 405.235 208.785 405.235C108.081 405.235 36.0023 342.82 36.0023 325.461C36.0023 308.102 108.081 342.372 208.785 342.372C309.489 342.372 391.125 339.717 391.125 357.077Z" fill="#3F3D56"/>
<path opacity="0.1" d="M391.125 357.077C391.125 374.436 309.489 405.235 208.785 405.235C108.081 405.235 36.0023 342.82 36.0023 325.461C36.0023 308.102 108.081 342.372 208.785 342.372C309.489 342.372 391.125 339.717 391.125 357.077Z" fill="black"/>
<path d="M391.125 356.893C391.125 374.252 309.489 388.324 208.785 388.324C108.081 388.324 36.0023 342.82 36.0023 325.461C36.0023 308.102 108.081 325.461 208.785 325.461C309.489 325.461 391.125 339.534 391.125 356.893Z" fill="#3F3D56"/>
<g opacity="0.7">
<path opacity="0.7" d="M385.089 94.6095C378.475 107.447 357.513 122.574 344.676 115.96C331.838 109.346 331.987 83.4958 338.601 70.6584C341.778 64.495 347.273 59.8457 353.877 57.7333C360.482 55.6208 367.655 56.2182 373.819 59.3939C379.983 62.5697 384.633 68.0638 386.747 74.6678C388.86 81.2718 388.264 88.4449 385.089 94.6095Z" fill="#7A86FF"/>
<path opacity="0.7" d="M345.762 119.354C345.349 118.55 344.695 117.895 343.892 117.481C343.088 117.067 342.175 116.915 341.281 117.046L343.589 112.565L348.07 114.874L345.762 119.354Z" fill="#7A86FF"/>
<path opacity="0.7" d="M342.496 114.717C343.01 115.428 343.687 116.007 344.469 116.406C345.251 116.805 346.116 117.012 346.994 117.011" stroke="#2F2E41" stroke-width="1.07613" stroke-miterlimit="10"/>
<path opacity="0.4" d="M381.458 80.3349C383.131 77.0869 382.294 73.3235 379.587 71.929C376.88 70.5345 373.329 72.037 371.656 75.285C369.983 78.533 370.82 82.2965 373.527 83.691C376.234 85.0855 379.784 83.583 381.458 80.3349Z" fill="white"/>
<path opacity="0.7" d="M344.555 116.121L325.048 165.21" stroke="#2F2E41" stroke-width="1.07613" stroke-miterlimit="10"/>
</g>
<path d="M389.207 173.357C374.727 187.965 339.774 199.542 325.166 185.061C310.557 170.581 321.826 135.527 336.306 120.919C343.26 113.908 352.715 109.946 362.59 109.904C372.465 109.862 381.953 113.744 388.966 120.696C395.98 127.648 399.945 137.101 399.99 146.977C400.036 156.852 396.157 166.341 389.207 173.357Z" fill="#FF6584"/>
<path d="M325.188 190.138C324.972 188.869 324.364 187.699 323.45 186.793C322.535 185.886 321.36 185.289 320.089 185.084L325.143 179.985L330.242 185.039L325.188 190.138Z" fill="#FF6584"/>
<path d="M322.737 182.439C323.131 183.626 323.802 184.702 324.694 185.578C325.585 186.455 326.673 187.107 327.866 187.482" stroke="#2F2E41" stroke-width="1.07613" stroke-miterlimit="10"/>
<path d="M324.193 186.293L276.178 234.733" stroke="#2F2E41" stroke-width="1.07613" stroke-miterlimit="10"/>
<path opacity="0.4" d="M390.384 152.41C394.048 148.714 394.521 143.243 391.441 140.19C388.361 137.137 382.894 137.658 379.23 141.354C375.567 145.05 375.094 150.521 378.174 153.574C381.254 156.627 386.721 156.106 390.384 152.41Z" fill="white"/>
<path d="M343.949 126.031C339.177 146.039 315.342 174.103 295.334 169.332C275.326 164.56 266.722 128.76 271.494 108.752C273.791 99.1494 279.806 90.852 288.218 85.6833C296.631 80.5146 306.751 78.8978 316.355 81.1881C325.959 83.4785 334.26 89.4886 339.435 97.8974C344.609 106.306 346.233 116.425 343.949 126.031Z" fill="#7A86FF"/>
<path d="M297.993 173.657C297.149 172.685 296.021 172.002 294.769 171.703C293.517 171.405 292.202 171.505 291.01 171.991L292.675 165.007L299.659 166.673L297.993 173.657Z" fill="#7A86FF"/>
<path d="M291.896 168.356C292.85 169.164 293.983 169.734 295.2 170.019C296.418 170.304 297.685 170.296 298.899 169.995" stroke="#2F2E41" stroke-width="1.07613" stroke-miterlimit="10"/>
<path opacity="0.4" d="M334.061 107.527C335.268 102.465 332.827 97.5459 328.609 96.5399C324.39 95.5338 319.992 98.822 318.784 103.884C317.577 108.946 320.018 113.866 324.237 114.872C328.455 115.878 332.854 112.59 334.061 107.527Z" fill="white"/>
<path d="M295.223 170.881L279.402 237.225" stroke="#2F2E41" stroke-width="1.07613" stroke-miterlimit="10"/>
<g opacity="0.8">
<path opacity="0.8" d="M122.175 301.466C111.774 311.587 86.9699 319.309 76.8488 308.908C66.7278 298.507 75.123 273.922 85.5239 263.801C87.997 261.395 90.9199 259.499 94.1257 258.222C97.3316 256.945 100.757 256.312 104.208 256.359C107.658 256.406 111.066 257.132 114.236 258.496C117.405 259.86 120.276 261.835 122.682 264.308C125.089 266.781 126.985 269.704 128.262 272.91C129.538 276.116 130.172 279.542 130.124 282.992C130.077 286.442 129.351 289.85 127.987 293.02C126.623 296.189 124.648 299.06 122.175 301.466Z" fill="#7A86FF"/>
<path opacity="0.8" d="M76.8 312.489C76.6635 311.591 76.2495 310.758 75.6161 310.107C74.9826 309.456 74.1613 309.02 73.2673 308.859L76.8977 305.326L80.4303 308.957L76.8 312.489Z" fill="#7A86FF"/>
<path opacity="0.8" d="M75.1686 307.027C75.4319 307.869 75.8914 308.637 76.5093 309.267C77.1271 309.896 77.8857 310.37 78.7225 310.65" stroke="#2F2E41" stroke-width="1.07613" stroke-miterlimit="10"/>
<path opacity="0.4" d="M123.272 286.705C125.904 284.144 126.307 280.29 124.173 278.097C122.039 275.904 118.176 276.202 115.544 278.763C112.913 281.324 112.51 285.178 114.643 287.371C116.777 289.563 120.641 289.265 123.272 286.705Z" fill="white"/>
</g>
<path d="M235.058 88.1813H242.365C247.159 88.1813 251.757 90.0856 255.146 93.4753C258.536 96.865 260.44 101.462 260.44 106.256V131.638H216.984V106.256C216.984 103.883 217.451 101.532 218.359 99.3392C219.268 97.1462 220.599 95.1537 222.278 93.4753C223.956 91.7969 225.949 90.4655 228.141 89.5572C230.334 88.6488 232.685 88.1813 235.058 88.1813Z" fill="#2F2E41"/>
<path d="M214.317 201.335L208.833 212.866C208.833 212.866 204.363 228.355 209.428 230.011C214.493 231.667 215.482 214.116 215.482 214.116L219.677 202.493L214.317 201.335Z" fill="#FFB9B9"/>
<path opacity="0.1" d="M214.317 201.335L208.833 212.866C208.833 212.866 204.363 228.355 209.428 230.011C214.493 231.667 215.482 214.116 215.482 214.116L219.677 202.493L214.317 201.335Z" fill="black"/>
<path d="M215.356 183.288L208.42 207.564L219.403 213.344V184.444L215.356 183.288Z" fill="#575A89"/>
<path d="M234.141 118.841C234.141 118.841 233.563 128.089 232.407 128.089C231.251 128.089 228.939 139.071 228.939 139.071L238.765 145.429L250.903 134.447L247.435 125.777C247.435 125.777 245.701 122.309 246.279 118.841C246.857 115.373 234.141 118.841 234.141 118.841Z" fill="#FFB9B9"/>
<path opacity="0.1" d="M234.141 118.841C234.141 118.841 233.563 128.089 232.407 128.089C231.251 128.089 228.939 139.071 228.939 139.071L238.765 145.429L250.903 134.447L247.435 125.777C247.435 125.777 245.701 122.309 246.279 118.841C246.857 115.373 234.141 118.841 234.141 118.841Z" fill="black"/>
<path d="M270.555 210.743L271.711 223.459C271.711 223.459 275.757 239.065 280.959 237.909C286.161 236.753 278.069 221.147 278.069 221.147L275.757 209.009L270.555 210.743Z" fill="#FFB9B9"/>
<path d="M245.701 336.169C245.701 336.169 249.169 357.555 246.857 361.601C244.545 365.647 249.169 366.225 249.169 366.225L263.041 362.757V356.399C263.041 356.399 258.417 335.591 258.417 334.435C258.417 333.279 245.701 336.169 245.701 336.169Z" fill="#FFB9B9"/>
<path d="M217.379 240.221C217.379 240.221 221.425 281.837 227.783 295.131C234.141 308.425 239.921 344.839 242.811 345.417C245.701 345.995 267.665 341.949 270.555 339.637C273.445 337.325 250.903 281.259 250.903 280.681C250.903 280.103 245.701 228.661 245.701 228.661L238.765 217.101L217.379 240.221Z" fill="#2F2E41"/>
<path opacity="0.1" d="M217.379 240.221C217.379 240.221 221.425 281.837 227.783 295.131C234.141 308.425 239.921 344.839 242.811 345.417C245.701 345.995 267.665 341.949 270.555 339.637C273.445 337.325 250.903 281.259 250.903 280.681C250.903 280.103 245.701 228.661 245.701 228.661L238.765 217.101L217.379 240.221Z" fill="black"/>
<path d="M250.903 360.445C250.903 360.445 245.123 357.555 243.967 359.289L239.343 366.225C239.343 366.225 219.691 375.473 226.627 376.629C233.563 377.785 246.857 377.785 248.591 376.629C250.325 375.473 269.399 365.069 268.821 364.491C268.243 363.913 263.619 351.775 263.041 352.931C262.463 354.087 254.371 362.757 250.903 360.445Z" fill="#2F2E41"/>
<path d="M153.799 311.315C153.799 311.315 140.505 320.563 134.147 318.829C127.789 317.095 134.147 331.545 134.147 331.545L145.707 337.903L149.175 335.013C149.175 335.013 161.313 318.829 166.515 318.251C171.717 317.673 153.799 311.315 153.799 311.315Z" fill="#FFB9B9"/>
<path d="M213.911 205.541L216.223 217.679L172.873 283.571C172.873 283.571 146.863 309.581 149.175 312.471C151.487 315.361 165.937 332.123 169.405 329.811C172.873 327.499 253.215 240.799 252.637 229.239C252.059 217.679 232.985 195.715 232.985 195.715L213.911 204.385V205.541Z" fill="#2F2E41"/>
<path d="M137.037 322.875C137.037 322.875 142.239 317.095 139.349 316.517C136.099 315.944 132.818 315.558 129.523 315.361C128.367 315.361 112.761 307.269 111.605 310.159C110.449 313.049 118.541 328.077 123.165 329.811C127.789 331.545 144.551 343.683 144.551 343.683C144.551 343.683 153.221 336.169 152.065 334.435C150.909 332.701 134.725 329.233 137.037 322.875Z" fill="#2F2E41"/>
<path d="M238.765 124.621C246.427 124.621 252.637 118.41 252.637 110.749C252.637 103.088 246.427 96.877 238.765 96.877C231.104 96.877 224.893 103.088 224.893 110.749C224.893 118.41 231.104 124.621 238.765 124.621Z" fill="#FFB9B9"/>
<path d="M241.655 131.557C241.655 131.557 231.829 132.135 228.939 130.401C226.049 128.667 219.691 154.099 219.691 154.099L215.645 187.623C215.645 187.623 215.067 191.669 215.645 193.981C216.223 196.293 209.865 192.825 212.177 199.183C214.489 205.541 210.443 208.431 214.489 209.009C218.535 209.587 239.921 200.917 239.921 200.917L249.747 149.475L252.637 128.667L241.655 131.557Z" fill="#D0CDE1"/>
<path d="M233.108 126.862C233.108 126.862 227.783 125.777 226.049 126.933C224.315 128.089 217.957 136.759 217.957 139.071C217.957 141.383 215.645 166.815 215.645 169.127C215.645 171.439 213.911 183.577 213.911 184.733C213.911 185.889 215.394 190.857 215.394 190.857L219.113 184.155C219.113 184.155 217.957 175.485 222.003 161.613C226.049 147.741 233.108 126.862 233.108 126.862Z" fill="#575A89"/>
<path d="M238.765 135.603C238.765 135.603 246.487 123.465 246.961 124.621C247.435 125.777 256.105 127.511 256.105 127.511C256.105 127.511 271.711 138.493 270.555 143.117C269.399 147.741 261.307 182.421 261.307 182.421C261.307 182.421 253.793 200.339 259.573 213.055C265.353 225.771 258.417 230.395 258.417 230.395C258.417 230.395 253.793 232.707 254.949 235.019C256.105 237.331 241.655 246.001 239.921 239.643C238.187 233.285 216.801 195.137 221.425 181.265C226.049 167.393 238.765 135.603 238.765 135.603Z" fill="#575A89"/>
<path d="M267.665 141.383C267.665 141.383 274.023 153.521 272.867 155.255C271.711 156.989 276.913 167.393 276.913 167.393C276.553 168.323 276.553 169.353 276.913 170.283C277.491 172.017 280.959 179.531 280.959 182.421C280.959 185.311 280.381 194.559 280.959 198.605C281.537 202.651 289.051 212.477 282.693 213.055C276.335 213.633 265.931 218.835 266.509 213.055C267.087 207.275 268.821 193.403 266.509 191.091C264.197 188.779 262.463 188.779 263.619 185.889C264.775 182.999 258.417 175.485 258.417 175.485L267.665 141.383Z" fill="#575A89"/>
<path d="M250.356 107.332H228.416L223.448 95.915H254.082L250.356 107.332Z" fill="#2F2E41"/>
<path d="M225.537 115.686C226.123 115.516 226.231 114.111 225.779 112.548C225.326 110.985 224.483 109.856 223.897 110.026C223.311 110.196 223.203 111.6 223.656 113.163C224.109 114.726 224.951 115.855 225.537 115.686Z" fill="#FFB9B9"/>
<path d="M253.399 113.163C253.852 111.601 253.744 110.196 253.158 110.026C252.572 109.856 251.73 110.986 251.277 112.548C250.824 114.111 250.932 115.516 251.518 115.686C252.104 115.856 252.947 114.726 253.399 113.163Z" fill="#FFB9B9"/>
<path d="M383.054 333.051C383.054 346.477 375.074 351.165 365.228 351.165C365 351.165 364.771 351.161 364.545 351.158C364.087 351.146 363.636 351.124 363.191 351.093C354.304 350.466 347.402 345.537 347.402 333.051C347.402 320.132 363.908 303.83 365.154 302.618C365.155 302.618 365.155 302.618 365.155 302.618C365.156 302.618 365.156 302.618 365.156 302.617C365.157 302.617 365.157 302.617 365.157 302.616C365.157 302.616 365.157 302.616 365.157 302.615C365.204 302.572 365.228 302.547 365.228 302.547C365.228 302.547 383.054 319.625 383.054 333.051Z" fill="#F2F2F2"/>
<path d="M364.579 349.111L371.097 340.002L364.564 350.11L364.545 351.158C364.087 351.146 363.636 351.124 363.191 351.093L363.893 337.664L363.886 337.559L363.899 337.541L363.967 336.27L357.415 326.137L363.985 335.317L364.001 335.589L364.533 325.441L358.923 314.968L364.601 323.657L365.154 302.618L365.157 302.547V302.615L365.064 319.207L370.649 312.63L365.04 320.636L364.894 329.724L370.108 321.004L364.873 331.06L364.789 336.112L372.359 323.975L364.761 337.875L364.579 349.111Z" fill="#3F3D56"/>
</g>
<defs>
<clipPath id="clip0">
<rect width="400" height="405.235" fill="white"/>
</clipPath>
</defs>
</svg>
