<svg width="64" height="64" viewBox="0 0 64 64" fill="none" xmlns="http://www.w3.org/2000/svg">
<g clip-path="url(#clip0)">
<path d="M44.9893 11.4987C44.2373 9.46133 42.296 8 40 8C36.5387 8 33.832 11.3173 34.9227 14.8853C37.8853 13.832 41.1787 11.944 44.9893 11.4987ZM34.6667 34.6667C34.6667 33.1947 33.4747 32 32 32C30.5253 32 29.3333 33.1947 29.3333 34.6667C29.3333 36.1387 30.5253 37.3333 32 37.3333C33.4747 37.3333 34.6667 36.1387 34.6667 34.6667ZM48.848 47.6613C52.7493 46.832 55.4373 43.688 54.5707 39.056C58.3013 43.1013 54.1573 49.5867 48.848 47.6613ZM11.512 47.6613C15.4133 46.832 18.1013 43.688 17.2347 39.056C20.9653 43.1013 16.8187 49.5867 11.512 47.6613ZM24 8C21.704 8 19.7627 9.46133 19.0107 11.4987C22.8213 11.9467 26.1147 13.832 29.0773 14.8853C30.168 11.3173 27.4613 8 24 8ZM27.024 22.6507C30.2453 23.7067 33.736 23.712 36.9733 22.6507C43.9467 20.3733 46.3467 17.3547 48.8453 21.768C49.8907 23.6107 52.3973 28 53.2853 29.592C45.6747 28.0587 38.4267 33.368 37.4453 40.936C34.1573 39.2827 29.9947 39.2107 26.5547 40.936C25.5707 33.3653 18.3253 28.0587 10.712 29.592C11.816 27.624 13.8667 24.0427 15.152 21.7707C17.648 17.3573 20.0427 20.368 27.024 22.6507ZM46.1467 14.184C42.432 14.184 38.52 16.5333 35.3147 17.5813C33.1493 18.2907 30.8213 18.2827 28.6853 17.5813C25.4827 16.5333 21.568 14.184 17.8533 14.184C15.192 14.184 12.632 15.3893 10.5093 19.1413C4.09333 30.488 0 36.9733 0 42.6667C0 50.0293 5.968 56 13.3333 56C24.104 56 24.416 45.0053 32 45.0053C39.584 45.0053 39.896 56 50.6667 56C58.032 56 64 50.0293 64 42.6667C64 36.9733 59.9067 30.488 53.4907 19.144C51.3653 15.3893 48.808 14.184 46.1467 14.184ZM50.6667 50.6667C46.256 50.6667 42.6667 47.0773 42.6667 42.6667C42.6667 38.256 46.256 34.6667 50.6667 34.6667C55.0773 34.6667 58.6667 38.256 58.6667 42.6667C58.6667 47.0773 55.0773 50.6667 50.6667 50.6667ZM13.3333 50.6667C8.92267 50.6667 5.33333 47.0773 5.33333 42.6667C5.33333 38.256 8.92267 34.6667 13.3333 34.6667C17.744 34.6667 21.3333 38.256 21.3333 42.6667C21.3333 47.0773 17.744 50.6667 13.3333 50.6667Z" fill="#040B52"/>
</g>
<defs>
<clipPath id="clip0">
<rect width="64" height="64" fill="white"/>
</clipPath>
</defs>
</svg>
