<svg width="65" height="64" viewBox="0 0 65 64" fill="none" xmlns="http://www.w3.org/2000/svg">
<g clip-path="url(#clip0)">
<path d="M52.5 29.3334C45.8733 29.3334 40.5 34.7067 40.5 41.3333C40.5 47.96 45.8733 53.3333 52.5 53.3333C59.1267 53.3333 64.5 47.96 64.5 41.3333C64.5 34.7067 59.1267 29.3334 52.5 29.3334ZM51.2493 46.624L46.748 42.2587L48.604 40.4L51.2467 42.9067L56.8893 37.1227L58.7453 38.9787L51.2493 46.624ZM11.1667 40H24.5V42.6667H11.1667V40ZM32.5 37.3333H11.1667V34.6667H32.5V37.3333ZM36.5053 48H7.16667C6.43067 48 5.83333 47.4027 5.83333 46.6667V29.3334H40.02C43.1773 26.0534 47.5987 24 52.5 24C54.8627 24 57.1107 24.4774 59.1667 25.336V16C59.1667 13.056 56.7773 10.6667 53.8333 10.6667H5.83333C2.88933 10.6667 0.5 13.056 0.5 16V48C0.5 50.944 2.88933 53.3333 5.83333 53.3333H40.02C38.5453 51.7973 37.3373 49.9973 36.5053 48ZM5.83333 17.3334C5.83333 16.5974 6.43067 16 7.16667 16H52.5C53.236 16 53.8333 16.5974 53.8333 17.3334V21.3334H5.83333V17.3334Z" fill="#040B52"/>
</g>
<defs>
<clipPath id="clip0">
<rect width="64" height="64" fill="white" transform="translate(0.5)"/>
</clipPath>
</defs>
</svg>
