<svg width="24" height="24" viewBox="0 0 24 24" fill="none" xmlns="http://www.w3.org/2000/svg">
<path opacity="0.1" fill-rule="evenodd" clip-rule="evenodd" d="M0 12C0 5.37258 5.37258 0 12 0C18.6274 0 24 5.37258 24 12C24 18.6274 18.6274 24 12 24C5.37258 24 0 18.6274 0 12Z" fill="#0B1DD5"/>
<path opacity="0.8" fill-rule="evenodd" clip-rule="evenodd" d="M11.6406 9.75358L11.6658 10.1688L11.2461 10.118C9.71843 9.92306 8.38383 9.26209 7.25067 8.15199L6.69668 7.60118L6.55399 8.00793C6.25181 8.91465 6.44487 9.87222 7.0744 10.5162C7.41015 10.8722 7.33461 10.923 6.75544 10.7111C6.55399 10.6434 6.37772 10.5925 6.36093 10.6179C6.30218 10.6772 6.50363 11.4484 6.66311 11.7534C6.88134 12.1772 7.32621 12.5924 7.81305 12.8381L8.22434 13.033L7.73751 13.0415C7.26746 13.0415 7.25067 13.05 7.30103 13.2279C7.46891 13.7787 8.13201 14.3634 8.87066 14.6177L9.39108 14.7956L8.93781 15.0668C8.26631 15.4566 7.4773 15.6769 6.68829 15.6939C6.31057 15.7023 6 15.7362 6 15.7617C6 15.8464 7.02404 16.3209 7.61999 16.5074C9.40786 17.0582 11.5315 16.8209 13.1263 15.8803C14.2595 15.2109 15.3926 13.8804 15.9214 12.5924C16.2068 11.906 16.4922 10.6518 16.4922 10.0502C16.4922 9.66037 16.5174 9.60952 16.9874 9.14345C17.2644 8.87228 17.5246 8.57569 17.575 8.49095C17.6589 8.32994 17.6505 8.32994 17.2224 8.474C16.509 8.72822 16.4083 8.69433 16.7608 8.313C17.021 8.04183 17.3316 7.55033 17.3316 7.40628C17.3316 7.38085 17.2057 7.42322 17.063 7.49949C16.9119 7.58423 16.5761 7.71134 16.3243 7.78761L15.8711 7.93166L15.4598 7.65202C15.2331 7.49949 14.9142 7.33001 14.7463 7.27917C14.3182 7.16053 13.6635 7.17748 13.2774 7.31306C12.2282 7.69439 11.5651 8.67738 11.6406 9.75358Z" fill="#0B1DD5" fill-opacity="0.8"/>
</svg>
