<svg width="629" height="285" viewBox="0 0 629 285" fill="none" xmlns="http://www.w3.org/2000/svg">
<g clip-path="url(#clip0)">
<path d="M568.669 114.445H549.658V180.252H568.669V114.445Z" fill="#F2F2F2"/>
<path d="M581.224 167.873L534.986 112.865L442.173 113.714L385.871 168.553L387.009 169.284H386.602V283.35H581.099V169.284L581.224 167.873Z" fill="#F2F2F2"/>
<path d="M535.034 112.982L477.271 180.705V283.35H581.1V167.821L535.034 112.982Z" fill="#E6E6E6"/>
<path d="M540.153 226.586H518.948V245.328H540.153V226.586Z" fill="#3F3D56"/>
<path d="M540.153 194.145H518.948V212.59H540.153V194.145Z" fill="#3F3D56"/>
<path d="M540.153 226.586H518.948V245.328H540.153V226.586Z" fill="white"/>
<path d="M540.153 194.145H518.948V212.59H540.153V194.145Z" fill="white"/>
<path d="M445.918 221.612H424.714V240.355H445.918V221.612Z" fill="white"/>
<path d="M445.918 189.172H424.714V207.617H445.918V189.172Z" fill="white"/>
<path d="M418.647 114.445H399.636V180.252H418.647V114.445Z" fill="#F2F2F2"/>
<path d="M431.201 167.873L384.963 112.865L292.151 113.714L235.849 168.553L236.986 169.284H236.58V283.35H431.077V169.284L431.201 167.873Z" fill="#F2F2F2"/>
<path d="M385.012 112.982L327.248 180.705V283.35H431.077V167.821L385.012 112.982Z" fill="#E6E6E6"/>
<path d="M390.13 226.586H368.926V245.328H390.13V226.586Z" fill="#3F3D56"/>
<path d="M390.13 194.145H368.926V212.59H390.13V194.145Z" fill="#3F3D56"/>
<path d="M390.13 226.586H368.926V245.328H390.13V226.586Z" fill="white"/>
<path d="M390.13 194.145H368.926V212.59H390.13V194.145Z" fill="white"/>
<path d="M295.895 221.612H274.691V240.355H295.895V221.612Z" fill="white"/>
<path d="M295.895 189.172H274.691V207.617H295.895V189.172Z" fill="white"/>
<path d="M265.033 57.6514H239.629V145.586H265.033V57.6514Z" fill="#F2F2F2"/>
<path d="M281.808 129.043L220.024 55.541L96.0032 56.6744L20.7705 129.953L22.2903 130.93H21.7475V283.349H281.642V130.93L281.808 129.043Z" fill="#F2F2F2"/>
<path d="M220.088 55.6973L142.901 146.191V283.349H281.642V128.976L220.088 55.6973Z" fill="#E6E6E6"/>
<path d="M226.928 207.499H198.593V232.543H226.928V207.499Z" fill="#3F3D56"/>
<path d="M226.928 164.15H198.593V188.798H226.928V164.15Z" fill="#3F3D56"/>
<path d="M226.928 207.499H198.593V232.543H226.928V207.499Z" fill="white"/>
<path d="M226.928 164.15H198.593V188.798H226.928V164.15Z" fill="white"/>
<path d="M101.008 200.854H72.6733V225.898H101.008V200.854Z" fill="white"/>
<path d="M101.008 157.505H72.6733V182.152H101.008V157.505Z" fill="white"/>
<path d="M607.625 282.787H0V284.048H607.625V282.787Z" fill="#3F3D56" fill-opacity="0.34"/>
<path d="M95.7323 259.607C105.863 259.607 114.075 242.851 114.075 222.18C114.075 201.51 105.863 184.754 95.7323 184.754C85.602 184.754 77.3896 201.51 77.3896 222.18C77.3896 242.851 85.602 259.607 95.7323 259.607Z" fill="#3F3D56"/>
<path d="M97.4261 283.441C90.0797 239.364 97.3521 195.446 97.4265 195.008L98.8555 195.25C98.7815 195.686 91.5508 239.373 98.8558 283.203L97.4261 283.441Z" fill="#7A86FF"/>
<path d="M111.881 214.132L95.2944 223.004L95.9781 224.282L112.565 215.41L111.881 214.132Z" fill="#7A86FF"/>
<path d="M78.4727 218.576L77.7886 219.854L94.3734 228.732L95.0574 227.453L78.4727 218.576Z" fill="#7A86FF"/>
<path d="M51.6603 237.662C71.4742 237.662 87.5365 204.888 87.5365 164.46C87.5365 124.031 71.4742 91.2578 51.6603 91.2578C31.8465 91.2578 15.7842 124.031 15.7842 164.46C15.7842 204.888 31.8465 237.662 51.6603 237.662Z" fill="#7A86FF"/>
<path d="M55.6565 284.166C41.3068 198.07 55.5117 112.287 55.6568 111.431L57.0858 111.673C56.9411 112.527 42.778 198.079 57.0862 283.928L55.6565 284.166Z" fill="#3F3D56"/>
<path d="M83.5729 149.33L51.1304 166.683L51.8141 167.961L84.2566 150.608L83.5729 149.33Z" fill="#3F3D56"/>
<path d="M17.5757 158.023L16.8916 159.301L49.3293 176.663L50.0134 175.385L17.5757 158.023Z" fill="#3F3D56"/>
<path d="M136.63 220.572C163.744 220.572 185.724 175.724 185.724 120.401C185.724 65.0785 163.744 20.2305 136.63 20.2305C109.517 20.2305 87.5366 65.0785 87.5366 120.401C87.5366 175.724 109.517 220.572 136.63 220.572Z" fill="#7A86FF"/>
<path d="M142.362 284.166C122.733 166.394 142.164 49.0513 142.362 47.8799L143.791 48.1219C143.593 49.2912 124.204 166.403 143.792 283.928L142.362 284.166Z" fill="#3F3D56"/>
<path d="M180.426 99.9326L136.031 123.679L136.715 124.957L181.11 101.211L180.426 99.9326Z" fill="#3F3D56"/>
<path d="M89.8623 111.828L89.1782 113.106L133.567 136.864L134.251 135.586L89.8623 111.828Z" fill="#3F3D56"/>
<path d="M549.052 259.607C559.182 259.607 567.394 242.851 567.394 222.18C567.394 201.51 559.182 184.754 549.052 184.754C538.921 184.754 530.709 201.51 530.709 222.18C530.709 242.851 538.921 259.607 549.052 259.607Z" fill="#3F3D56"/>
<path d="M547.357 283.441C554.704 239.364 547.431 195.446 547.357 195.008L545.928 195.25C546.002 195.686 553.233 239.373 545.928 283.203L547.357 283.441Z" fill="#7A86FF"/>
<path d="M532.902 214.132L532.219 215.41L548.806 224.282L549.489 223.004L532.902 214.132Z" fill="#7A86FF"/>
<path d="M566.311 218.576L549.727 227.453L550.411 228.731L566.995 219.854L566.311 218.576Z" fill="#7A86FF"/>
<path d="M593.124 237.662C612.938 237.662 629 204.888 629 164.46C629 124.031 612.938 91.2578 593.124 91.2578C573.31 91.2578 557.248 124.031 557.248 164.46C557.248 204.888 573.31 237.662 593.124 237.662Z" fill="#7A86FF"/>
<path d="M589.128 284.166C603.478 198.07 589.273 112.287 589.128 111.431L587.699 111.673C587.843 112.527 602.006 198.079 587.698 283.928L589.128 284.166Z" fill="#3F3D56"/>
<path d="M561.211 149.33L560.527 150.608L592.97 167.961L593.654 166.683L561.211 149.33Z" fill="#3F3D56"/>
<path d="M627.208 158.023L594.771 175.385L595.455 176.663L627.892 159.301L627.208 158.023Z" fill="#3F3D56"/>
<path d="M508.154 220.572C535.268 220.572 557.248 175.724 557.248 120.401C557.248 65.0785 535.268 20.2305 508.154 20.2305C481.041 20.2305 459.061 65.0785 459.061 120.401C459.061 175.724 481.041 220.572 508.154 220.572Z" fill="#7A86FF"/>
<path d="M502.422 284.166C522.051 166.394 502.62 49.0513 502.422 47.8799L500.993 48.1219C501.191 49.2912 520.58 166.403 500.992 283.928L502.422 284.166Z" fill="#3F3D56"/>
<path d="M464.358 99.9327L463.674 101.211L508.069 124.957L508.752 123.679L464.358 99.9327Z" fill="#3F3D56"/>
<path d="M554.922 111.828L510.533 135.586L511.217 136.864L555.606 113.106L554.922 111.828Z" fill="#3F3D56"/>
<path d="M371.656 63.959L377.459 59.3179C372.951 58.8206 371.099 61.2791 370.341 63.2251C366.819 61.7626 362.985 63.6792 362.985 63.6792L374.596 67.8941C374.01 66.3297 372.99 64.9646 371.656 63.959Z" fill="#3F3D56"/>
<path d="M229.828 22.9864L235.631 18.3453C231.123 17.8479 229.27 20.3064 228.512 22.2524C224.991 20.79 221.157 22.7065 221.157 22.7065L232.767 26.9215C232.181 25.357 231.162 23.992 229.828 22.9864Z" fill="#3F3D56"/>
<path d="M461.165 4.70612L466.968 0.0649964C462.46 -0.432348 460.608 2.02618 459.85 3.97212C456.328 2.50972 452.494 4.42626 452.494 4.42626L464.104 8.64122C463.519 7.07676 462.499 5.71171 461.165 4.70612Z" fill="#3F3D56"/>
<path d="M472.881 275.495C471.339 275.495 469.823 275.901 468.488 276.674C467.132 275.447 465.449 274.641 463.643 274.353C461.838 274.064 459.987 274.306 458.317 275.049C456.646 275.792 455.227 277.004 454.232 278.538C453.236 280.071 452.708 281.861 452.71 283.69H481.674C481.516 281.465 480.521 279.383 478.89 277.862C477.258 276.342 475.111 275.496 472.881 275.495Z" fill="#3F3D56"/>
<path d="M178.509 275.495C176.966 275.495 175.451 275.901 174.116 276.674C172.76 275.447 171.077 274.641 169.271 274.353C167.466 274.064 165.615 274.306 163.945 275.049C162.274 275.792 160.855 277.004 159.86 278.538C158.864 280.071 158.336 281.861 158.338 283.69H187.302C187.144 281.465 186.149 279.383 184.518 277.862C182.886 276.342 180.739 275.496 178.509 275.495Z" fill="#3F3D56"/>
<path d="M329.162 275.495C327.62 275.495 326.104 275.901 324.769 276.674C323.413 275.447 321.73 274.641 319.925 274.353C318.119 274.064 316.269 274.306 314.598 275.049C312.927 275.792 311.508 277.004 310.513 278.538C309.518 280.071 308.989 281.861 308.991 283.69H337.955C337.798 281.465 336.803 279.383 335.171 277.862C333.54 276.342 331.393 275.496 329.162 275.495Z" fill="#3F3D56"/>
<path d="M297.373 254.805H213.809V257.5H226.841V283.109H229.536V257.5H280.296V283.109H282.992V257.5H297.373V254.805Z" fill="#3F3D56"/>
<path d="M297.537 246.74H213.973V249.436H297.537V246.74Z" fill="#3F3D56"/>
<path d="M297.537 240.001H213.973V242.697H297.537V240.001Z" fill="#3F3D56"/>
<path d="M297.537 233.262H213.973V235.957H297.537V233.262Z" fill="#3F3D56"/>
<path d="M427.855 254.805H344.291V257.5H357.323V283.109H360.019V257.5H410.779V283.109H413.475V257.5H427.855V254.805Z" fill="#3F3D56"/>
<path d="M428.019 246.74H344.455V249.436H428.019V246.74Z" fill="#3F3D56"/>
<path d="M428.019 240.001H344.455V242.697H428.019V240.001Z" fill="#3F3D56"/>
<path d="M428.019 233.262H344.455V235.957H428.019V233.262Z" fill="#3F3D56"/>
</g>
<defs>
<clipPath id="clip0">
<rect width="629" height="284.166" fill="white"/>
</clipPath>
</defs>
</svg>
