<svg width="24" height="24" viewBox="0 0 24 24" fill="none" xmlns="http://www.w3.org/2000/svg">
<path opacity="0.1" fill-rule="evenodd" clip-rule="evenodd" d="M0 12C0 5.37258 5.37258 0 12 0C18.6274 0 24 5.37258 24 12C24 18.6274 18.6274 24 12 24C5.37258 24 0 18.6274 0 12Z" fill="#0B1DD5"/>
<path opacity="0.8" fill-rule="evenodd" clip-rule="evenodd" d="M17.0008 7.87464C17.5516 8.02577 17.9853 8.47108 18.1325 9.03659C18.4 10.0615 18.4 12.2 18.4 12.2C18.4 12.2 18.4 14.3384 18.1325 15.3634C17.9853 15.9289 17.5516 16.3742 17.0008 16.5254C16.0027 16.8 12 16.8 12 16.8C12 16.8 7.99732 16.8 6.99914 16.5254C6.44838 16.3742 6.01463 15.9289 5.86743 15.3634C5.60001 14.3384 5.60001 12.2 5.60001 12.2C5.60001 12.2 5.60001 10.0615 5.86743 9.03659C6.01463 8.47108 6.44838 8.02577 6.99914 7.87464C7.99732 7.59998 12 7.59998 12 7.59998C12 7.59998 16.0027 7.59998 17.0008 7.87464ZM10.8 10.3999V14.3999L14 12.4L10.8 10.3999Z" fill="#0B1DD5" fill-opacity="0.8"/>
</svg>
